G04 EAGLE Gerber RS-274X export*
G75*
%MOMM*%
%FSLAX34Y34*%
%LPD*%
%AMOC8*
5,1,8,0,0,1.08239X$1,22.5*%
G01*
%ADD10C,0.101600*%
%ADD11C,0.076200*%
%ADD12C,0.127000*%
%ADD13C,0.400000*%
%ADD14C,0.254000*%
%ADD15C,0.152400*%
%ADD16C,0.381000*%


D10*
X59176Y37089D02*
X57650Y35564D01*
X57650Y32513D01*
X59176Y30988D01*
X60701Y30988D01*
X62226Y32513D01*
X62226Y35564D01*
X63751Y37089D01*
X65277Y37089D01*
X66802Y35564D01*
X66802Y32513D01*
X65277Y30988D01*
X57650Y44919D02*
X59176Y46444D01*
X57650Y44919D02*
X57650Y41868D01*
X59176Y40343D01*
X65277Y40343D01*
X66802Y41868D01*
X66802Y44919D01*
X65277Y46444D01*
X66802Y49698D02*
X57650Y49698D01*
X66802Y49698D02*
X66802Y55800D01*
X84576Y37089D02*
X83050Y35564D01*
X83050Y32513D01*
X84576Y30988D01*
X86101Y30988D01*
X87626Y32513D01*
X87626Y35564D01*
X89151Y37089D01*
X90677Y37089D01*
X92202Y35564D01*
X92202Y32513D01*
X90677Y30988D01*
X92202Y40343D02*
X83050Y40343D01*
X92202Y40343D02*
X92202Y44919D01*
X90677Y46444D01*
X84576Y46444D01*
X83050Y44919D01*
X83050Y40343D01*
X86101Y49698D02*
X92202Y49698D01*
X86101Y49698D02*
X83050Y52749D01*
X86101Y55800D01*
X92202Y55800D01*
X87626Y55800D02*
X87626Y49698D01*
X108450Y32513D02*
X109976Y30988D01*
X108450Y32513D02*
X108450Y35564D01*
X109976Y37089D01*
X111501Y37089D01*
X113026Y35564D01*
X113026Y34039D01*
X113026Y35564D02*
X114551Y37089D01*
X116077Y37089D01*
X117602Y35564D01*
X117602Y32513D01*
X116077Y30988D01*
X114551Y40343D02*
X108450Y40343D01*
X114551Y40343D02*
X117602Y43394D01*
X114551Y46444D01*
X108450Y46444D01*
X109976Y49698D02*
X108450Y51224D01*
X108450Y54274D01*
X109976Y55800D01*
X111501Y55800D01*
X113026Y54274D01*
X113026Y52749D01*
X113026Y54274D02*
X114551Y55800D01*
X116077Y55800D01*
X117602Y54274D01*
X117602Y51224D01*
X116077Y49698D01*
X133850Y35564D02*
X135376Y37089D01*
X133850Y35564D02*
X133850Y32513D01*
X135376Y30988D01*
X141477Y30988D01*
X143002Y32513D01*
X143002Y35564D01*
X141477Y37089D01*
X138426Y37089D01*
X138426Y34039D01*
X143002Y40343D02*
X133850Y40343D01*
X143002Y46444D01*
X133850Y46444D01*
X133850Y49698D02*
X143002Y49698D01*
X143002Y54274D01*
X141477Y55800D01*
X135376Y55800D01*
X133850Y54274D01*
X133850Y49698D01*
X69857Y177292D02*
X63755Y177292D01*
X69857Y177292D02*
X71382Y175767D01*
X71382Y172716D01*
X69857Y171191D01*
X63755Y171191D01*
X62230Y172716D01*
X62230Y175767D01*
X63755Y177292D01*
X65281Y174241D02*
X62230Y171191D01*
X63755Y167937D02*
X68331Y167937D01*
X63755Y167937D02*
X62230Y166412D01*
X63755Y164886D01*
X62230Y163361D01*
X63755Y161836D01*
X68331Y161836D01*
X68331Y158582D02*
X68331Y157056D01*
X62230Y157056D01*
X62230Y155531D02*
X62230Y158582D01*
X71382Y157056D02*
X72907Y157056D01*
X68331Y152345D02*
X68331Y150820D01*
X62230Y150820D01*
X62230Y152345D02*
X62230Y149294D01*
X71382Y150820D02*
X72907Y150820D01*
X68331Y144583D02*
X68331Y140007D01*
X68331Y144583D02*
X66806Y146108D01*
X63755Y146108D01*
X62230Y144583D01*
X62230Y140007D01*
X130804Y142494D02*
X136905Y142494D01*
X130804Y142494D02*
X129278Y144019D01*
X129278Y147070D01*
X130804Y148595D01*
X136905Y148595D01*
X138430Y147070D01*
X138430Y144019D01*
X136905Y142494D01*
X135379Y145545D02*
X138430Y148595D01*
X136905Y151849D02*
X132329Y151849D01*
X136905Y151849D02*
X138430Y153374D01*
X136905Y154900D01*
X138430Y156425D01*
X136905Y157950D01*
X132329Y157950D01*
X132329Y161204D02*
X132329Y162730D01*
X138430Y162730D01*
X138430Y164255D02*
X138430Y161204D01*
X129278Y162730D02*
X127753Y162730D01*
X132329Y167441D02*
X132329Y168966D01*
X138430Y168966D01*
X138430Y167441D02*
X138430Y170492D01*
X129278Y168966D02*
X127753Y168966D01*
X132329Y175203D02*
X132329Y179779D01*
X132329Y175203D02*
X133854Y173678D01*
X136905Y173678D01*
X138430Y175203D01*
X138430Y179779D01*
D11*
X93812Y167259D02*
X92583Y168488D01*
X93812Y167259D02*
X95040Y167259D01*
X96269Y168488D01*
X96269Y174631D01*
X95040Y174631D02*
X97498Y174631D01*
X100067Y174631D02*
X100067Y167259D01*
X100067Y174631D02*
X103753Y174631D01*
X104982Y173403D01*
X104982Y170945D01*
X103753Y169716D01*
X100067Y169716D01*
X107551Y172174D02*
X110009Y174631D01*
X110009Y167259D01*
X112466Y167259D02*
X107551Y167259D01*
D12*
X101092Y64262D02*
X73152Y64262D01*
X73152Y76962D01*
X101092Y76962D01*
X101092Y64262D01*
X49200Y27700D02*
X49200Y2300D01*
X49200Y27700D02*
X150800Y27700D01*
X150800Y2300D01*
X49200Y2300D01*
D13*
X53586Y185000D02*
X53588Y185075D01*
X53594Y185149D01*
X53604Y185223D01*
X53617Y185296D01*
X53635Y185369D01*
X53656Y185440D01*
X53681Y185511D01*
X53710Y185580D01*
X53743Y185647D01*
X53779Y185712D01*
X53818Y185776D01*
X53860Y185837D01*
X53906Y185896D01*
X53955Y185953D01*
X54007Y186006D01*
X54061Y186057D01*
X54118Y186106D01*
X54178Y186150D01*
X54240Y186192D01*
X54304Y186231D01*
X54370Y186266D01*
X54437Y186297D01*
X54507Y186325D01*
X54577Y186349D01*
X54649Y186370D01*
X54722Y186386D01*
X54795Y186399D01*
X54870Y186408D01*
X54944Y186413D01*
X55019Y186414D01*
X55093Y186411D01*
X55168Y186404D01*
X55241Y186393D01*
X55315Y186379D01*
X55387Y186360D01*
X55458Y186338D01*
X55528Y186312D01*
X55597Y186282D01*
X55663Y186249D01*
X55728Y186212D01*
X55791Y186172D01*
X55852Y186128D01*
X55910Y186082D01*
X55966Y186032D01*
X56019Y185980D01*
X56070Y185925D01*
X56117Y185867D01*
X56161Y185807D01*
X56202Y185744D01*
X56240Y185680D01*
X56274Y185614D01*
X56305Y185545D01*
X56332Y185476D01*
X56355Y185405D01*
X56374Y185333D01*
X56390Y185260D01*
X56402Y185186D01*
X56410Y185112D01*
X56414Y185037D01*
X56414Y184963D01*
X56410Y184888D01*
X56402Y184814D01*
X56390Y184740D01*
X56374Y184667D01*
X56355Y184595D01*
X56332Y184524D01*
X56305Y184455D01*
X56274Y184386D01*
X56240Y184320D01*
X56202Y184256D01*
X56161Y184193D01*
X56117Y184133D01*
X56070Y184075D01*
X56019Y184020D01*
X55966Y183968D01*
X55910Y183918D01*
X55852Y183872D01*
X55791Y183828D01*
X55728Y183788D01*
X55663Y183751D01*
X55597Y183718D01*
X55528Y183688D01*
X55458Y183662D01*
X55387Y183640D01*
X55315Y183621D01*
X55241Y183607D01*
X55168Y183596D01*
X55093Y183589D01*
X55019Y183586D01*
X54944Y183587D01*
X54870Y183592D01*
X54795Y183601D01*
X54722Y183614D01*
X54649Y183630D01*
X54577Y183651D01*
X54507Y183675D01*
X54437Y183703D01*
X54370Y183734D01*
X54304Y183769D01*
X54240Y183808D01*
X54178Y183850D01*
X54118Y183894D01*
X54061Y183943D01*
X54007Y183994D01*
X53955Y184047D01*
X53906Y184104D01*
X53860Y184163D01*
X53818Y184224D01*
X53779Y184288D01*
X53743Y184353D01*
X53710Y184420D01*
X53681Y184489D01*
X53656Y184560D01*
X53635Y184631D01*
X53617Y184704D01*
X53604Y184777D01*
X53594Y184851D01*
X53588Y184925D01*
X53586Y185000D01*
D14*
X6000Y175000D02*
X6000Y145000D01*
X32000Y190000D02*
X48500Y190000D01*
X48500Y137500D02*
X48500Y130000D01*
X32000Y130000D01*
X48500Y182500D02*
X48500Y190000D01*
D13*
X143586Y135000D02*
X143588Y135075D01*
X143594Y135149D01*
X143604Y135223D01*
X143617Y135296D01*
X143635Y135369D01*
X143656Y135440D01*
X143681Y135511D01*
X143710Y135580D01*
X143743Y135647D01*
X143779Y135712D01*
X143818Y135776D01*
X143860Y135837D01*
X143906Y135896D01*
X143955Y135953D01*
X144007Y136006D01*
X144061Y136057D01*
X144118Y136106D01*
X144178Y136150D01*
X144240Y136192D01*
X144304Y136231D01*
X144370Y136266D01*
X144437Y136297D01*
X144507Y136325D01*
X144577Y136349D01*
X144649Y136370D01*
X144722Y136386D01*
X144795Y136399D01*
X144870Y136408D01*
X144944Y136413D01*
X145019Y136414D01*
X145093Y136411D01*
X145168Y136404D01*
X145241Y136393D01*
X145315Y136379D01*
X145387Y136360D01*
X145458Y136338D01*
X145528Y136312D01*
X145597Y136282D01*
X145663Y136249D01*
X145728Y136212D01*
X145791Y136172D01*
X145852Y136128D01*
X145910Y136082D01*
X145966Y136032D01*
X146019Y135980D01*
X146070Y135925D01*
X146117Y135867D01*
X146161Y135807D01*
X146202Y135744D01*
X146240Y135680D01*
X146274Y135614D01*
X146305Y135545D01*
X146332Y135476D01*
X146355Y135405D01*
X146374Y135333D01*
X146390Y135260D01*
X146402Y135186D01*
X146410Y135112D01*
X146414Y135037D01*
X146414Y134963D01*
X146410Y134888D01*
X146402Y134814D01*
X146390Y134740D01*
X146374Y134667D01*
X146355Y134595D01*
X146332Y134524D01*
X146305Y134455D01*
X146274Y134386D01*
X146240Y134320D01*
X146202Y134256D01*
X146161Y134193D01*
X146117Y134133D01*
X146070Y134075D01*
X146019Y134020D01*
X145966Y133968D01*
X145910Y133918D01*
X145852Y133872D01*
X145791Y133828D01*
X145728Y133788D01*
X145663Y133751D01*
X145597Y133718D01*
X145528Y133688D01*
X145458Y133662D01*
X145387Y133640D01*
X145315Y133621D01*
X145241Y133607D01*
X145168Y133596D01*
X145093Y133589D01*
X145019Y133586D01*
X144944Y133587D01*
X144870Y133592D01*
X144795Y133601D01*
X144722Y133614D01*
X144649Y133630D01*
X144577Y133651D01*
X144507Y133675D01*
X144437Y133703D01*
X144370Y133734D01*
X144304Y133769D01*
X144240Y133808D01*
X144178Y133850D01*
X144118Y133894D01*
X144061Y133943D01*
X144007Y133994D01*
X143955Y134047D01*
X143906Y134104D01*
X143860Y134163D01*
X143818Y134224D01*
X143779Y134288D01*
X143743Y134353D01*
X143710Y134420D01*
X143681Y134489D01*
X143656Y134560D01*
X143635Y134631D01*
X143617Y134704D01*
X143604Y134777D01*
X143594Y134851D01*
X143588Y134925D01*
X143586Y135000D01*
D14*
X194000Y145000D02*
X194000Y175000D01*
X168000Y130000D02*
X151500Y130000D01*
X151500Y182500D02*
X151500Y190000D01*
X168000Y190000D01*
X151500Y137500D02*
X151500Y130000D01*
D15*
X114300Y196850D02*
X88900Y196850D01*
X86360Y179070D02*
X86362Y178970D01*
X86368Y178871D01*
X86378Y178771D01*
X86391Y178673D01*
X86409Y178574D01*
X86430Y178477D01*
X86455Y178381D01*
X86484Y178285D01*
X86517Y178191D01*
X86553Y178098D01*
X86593Y178007D01*
X86637Y177917D01*
X86684Y177829D01*
X86734Y177743D01*
X86788Y177659D01*
X86845Y177577D01*
X86905Y177498D01*
X86969Y177420D01*
X87035Y177346D01*
X87104Y177274D01*
X87176Y177205D01*
X87250Y177139D01*
X87328Y177075D01*
X87407Y177015D01*
X87489Y176958D01*
X87573Y176904D01*
X87659Y176854D01*
X87747Y176807D01*
X87837Y176763D01*
X87928Y176723D01*
X88021Y176687D01*
X88115Y176654D01*
X88211Y176625D01*
X88307Y176600D01*
X88404Y176579D01*
X88503Y176561D01*
X88601Y176548D01*
X88701Y176538D01*
X88800Y176532D01*
X88900Y176530D01*
X114300Y176530D02*
X114400Y176532D01*
X114499Y176538D01*
X114599Y176548D01*
X114697Y176561D01*
X114796Y176579D01*
X114893Y176600D01*
X114989Y176625D01*
X115085Y176654D01*
X115179Y176687D01*
X115272Y176723D01*
X115363Y176763D01*
X115453Y176807D01*
X115541Y176854D01*
X115627Y176904D01*
X115711Y176958D01*
X115793Y177015D01*
X115872Y177075D01*
X115950Y177139D01*
X116024Y177205D01*
X116096Y177274D01*
X116165Y177346D01*
X116231Y177420D01*
X116295Y177498D01*
X116355Y177577D01*
X116412Y177659D01*
X116466Y177743D01*
X116516Y177829D01*
X116563Y177917D01*
X116607Y178007D01*
X116647Y178098D01*
X116683Y178191D01*
X116716Y178285D01*
X116745Y178381D01*
X116770Y178477D01*
X116791Y178574D01*
X116809Y178673D01*
X116822Y178771D01*
X116832Y178871D01*
X116838Y178970D01*
X116840Y179070D01*
X116840Y194310D02*
X116838Y194410D01*
X116832Y194509D01*
X116822Y194609D01*
X116809Y194707D01*
X116791Y194806D01*
X116770Y194903D01*
X116745Y194999D01*
X116716Y195095D01*
X116683Y195189D01*
X116647Y195282D01*
X116607Y195373D01*
X116563Y195463D01*
X116516Y195551D01*
X116466Y195637D01*
X116412Y195721D01*
X116355Y195803D01*
X116295Y195882D01*
X116231Y195960D01*
X116165Y196034D01*
X116096Y196106D01*
X116024Y196175D01*
X115950Y196241D01*
X115872Y196305D01*
X115793Y196365D01*
X115711Y196422D01*
X115627Y196476D01*
X115541Y196526D01*
X115453Y196573D01*
X115363Y196617D01*
X115272Y196657D01*
X115179Y196693D01*
X115085Y196726D01*
X114989Y196755D01*
X114893Y196780D01*
X114796Y196801D01*
X114697Y196819D01*
X114599Y196832D01*
X114499Y196842D01*
X114400Y196848D01*
X114300Y196850D01*
X88900Y196850D02*
X88800Y196848D01*
X88701Y196842D01*
X88601Y196832D01*
X88503Y196819D01*
X88404Y196801D01*
X88307Y196780D01*
X88211Y196755D01*
X88115Y196726D01*
X88021Y196693D01*
X87928Y196657D01*
X87837Y196617D01*
X87747Y196573D01*
X87659Y196526D01*
X87573Y196476D01*
X87489Y196422D01*
X87407Y196365D01*
X87328Y196305D01*
X87250Y196241D01*
X87176Y196175D01*
X87104Y196106D01*
X87035Y196034D01*
X86969Y195960D01*
X86905Y195882D01*
X86845Y195803D01*
X86788Y195721D01*
X86734Y195637D01*
X86684Y195551D01*
X86637Y195463D01*
X86593Y195373D01*
X86553Y195282D01*
X86517Y195189D01*
X86484Y195095D01*
X86455Y194999D01*
X86430Y194903D01*
X86409Y194806D01*
X86391Y194707D01*
X86378Y194609D01*
X86368Y194509D01*
X86362Y194410D01*
X86360Y194310D01*
X86360Y179070D01*
X116840Y179070D02*
X116840Y194310D01*
X114300Y176530D02*
X88900Y176530D01*
D12*
X87630Y165100D02*
X87630Y137160D01*
X87630Y165100D02*
X100330Y165100D01*
X100330Y137160D01*
X87630Y137160D01*
X102870Y137160D02*
X102870Y165100D01*
X115570Y165100D01*
X115570Y137160D01*
X102870Y137160D01*
D16*
X112000Y96430D03*
D12*
X111000Y98680D02*
X89000Y98680D01*
X89000Y113180D02*
X111000Y113180D01*
X89000Y99680D02*
X89000Y98680D01*
X89000Y105680D02*
X89000Y106180D01*
X111000Y106180D02*
X111000Y105680D01*
X111000Y112180D02*
X111000Y113180D01*
X89000Y113180D02*
X89000Y112180D01*
X111000Y99680D02*
X111000Y98680D01*
M02*
