G04 EAGLE Gerber RS-274X export*
G75*
%MOMM*%
%FSLAX34Y34*%
%LPD*%
%AMOC8*
5,1,8,0,0,1.08239X$1,22.5*%
G01*
%ADD10C,0.025400*%
%ADD11C,0.000000*%


D10*
X0Y0D02*
X200000Y0D01*
X200000Y200000D01*
X0Y200000D01*
X0Y0D01*
D11*
X10000Y67000D02*
X10005Y67368D01*
X10018Y67736D01*
X10041Y68103D01*
X10072Y68470D01*
X10113Y68836D01*
X10162Y69201D01*
X10221Y69564D01*
X10288Y69926D01*
X10364Y70287D01*
X10450Y70645D01*
X10543Y71001D01*
X10646Y71354D01*
X10757Y71705D01*
X10877Y72053D01*
X11005Y72398D01*
X11142Y72740D01*
X11287Y73079D01*
X11440Y73413D01*
X11602Y73744D01*
X11771Y74071D01*
X11949Y74393D01*
X12134Y74712D01*
X12327Y75025D01*
X12528Y75334D01*
X12736Y75637D01*
X12952Y75935D01*
X13175Y76228D01*
X13405Y76516D01*
X13642Y76798D01*
X13886Y77073D01*
X14136Y77343D01*
X14393Y77607D01*
X14657Y77864D01*
X14927Y78114D01*
X15202Y78358D01*
X15484Y78595D01*
X15772Y78825D01*
X16065Y79048D01*
X16363Y79264D01*
X16666Y79472D01*
X16975Y79673D01*
X17288Y79866D01*
X17607Y80051D01*
X17929Y80229D01*
X18256Y80398D01*
X18587Y80560D01*
X18921Y80713D01*
X19260Y80858D01*
X19602Y80995D01*
X19947Y81123D01*
X20295Y81243D01*
X20646Y81354D01*
X20999Y81457D01*
X21355Y81550D01*
X21713Y81636D01*
X22074Y81712D01*
X22436Y81779D01*
X22799Y81838D01*
X23164Y81887D01*
X23530Y81928D01*
X23897Y81959D01*
X24264Y81982D01*
X24632Y81995D01*
X25000Y82000D01*
X25368Y81995D01*
X25736Y81982D01*
X26103Y81959D01*
X26470Y81928D01*
X26836Y81887D01*
X27201Y81838D01*
X27564Y81779D01*
X27926Y81712D01*
X28287Y81636D01*
X28645Y81550D01*
X29001Y81457D01*
X29354Y81354D01*
X29705Y81243D01*
X30053Y81123D01*
X30398Y80995D01*
X30740Y80858D01*
X31079Y80713D01*
X31413Y80560D01*
X31744Y80398D01*
X32071Y80229D01*
X32393Y80051D01*
X32712Y79866D01*
X33025Y79673D01*
X33334Y79472D01*
X33637Y79264D01*
X33935Y79048D01*
X34228Y78825D01*
X34516Y78595D01*
X34798Y78358D01*
X35073Y78114D01*
X35343Y77864D01*
X35607Y77607D01*
X35864Y77343D01*
X36114Y77073D01*
X36358Y76798D01*
X36595Y76516D01*
X36825Y76228D01*
X37048Y75935D01*
X37264Y75637D01*
X37472Y75334D01*
X37673Y75025D01*
X37866Y74712D01*
X38051Y74393D01*
X38229Y74071D01*
X38398Y73744D01*
X38560Y73413D01*
X38713Y73079D01*
X38858Y72740D01*
X38995Y72398D01*
X39123Y72053D01*
X39243Y71705D01*
X39354Y71354D01*
X39457Y71001D01*
X39550Y70645D01*
X39636Y70287D01*
X39712Y69926D01*
X39779Y69564D01*
X39838Y69201D01*
X39887Y68836D01*
X39928Y68470D01*
X39959Y68103D01*
X39982Y67736D01*
X39995Y67368D01*
X40000Y67000D01*
X39995Y66632D01*
X39982Y66264D01*
X39959Y65897D01*
X39928Y65530D01*
X39887Y65164D01*
X39838Y64799D01*
X39779Y64436D01*
X39712Y64074D01*
X39636Y63713D01*
X39550Y63355D01*
X39457Y62999D01*
X39354Y62646D01*
X39243Y62295D01*
X39123Y61947D01*
X38995Y61602D01*
X38858Y61260D01*
X38713Y60921D01*
X38560Y60587D01*
X38398Y60256D01*
X38229Y59929D01*
X38051Y59607D01*
X37866Y59288D01*
X37673Y58975D01*
X37472Y58666D01*
X37264Y58363D01*
X37048Y58065D01*
X36825Y57772D01*
X36595Y57484D01*
X36358Y57202D01*
X36114Y56927D01*
X35864Y56657D01*
X35607Y56393D01*
X35343Y56136D01*
X35073Y55886D01*
X34798Y55642D01*
X34516Y55405D01*
X34228Y55175D01*
X33935Y54952D01*
X33637Y54736D01*
X33334Y54528D01*
X33025Y54327D01*
X32712Y54134D01*
X32393Y53949D01*
X32071Y53771D01*
X31744Y53602D01*
X31413Y53440D01*
X31079Y53287D01*
X30740Y53142D01*
X30398Y53005D01*
X30053Y52877D01*
X29705Y52757D01*
X29354Y52646D01*
X29001Y52543D01*
X28645Y52450D01*
X28287Y52364D01*
X27926Y52288D01*
X27564Y52221D01*
X27201Y52162D01*
X26836Y52113D01*
X26470Y52072D01*
X26103Y52041D01*
X25736Y52018D01*
X25368Y52005D01*
X25000Y52000D01*
X24632Y52005D01*
X24264Y52018D01*
X23897Y52041D01*
X23530Y52072D01*
X23164Y52113D01*
X22799Y52162D01*
X22436Y52221D01*
X22074Y52288D01*
X21713Y52364D01*
X21355Y52450D01*
X20999Y52543D01*
X20646Y52646D01*
X20295Y52757D01*
X19947Y52877D01*
X19602Y53005D01*
X19260Y53142D01*
X18921Y53287D01*
X18587Y53440D01*
X18256Y53602D01*
X17929Y53771D01*
X17607Y53949D01*
X17288Y54134D01*
X16975Y54327D01*
X16666Y54528D01*
X16363Y54736D01*
X16065Y54952D01*
X15772Y55175D01*
X15484Y55405D01*
X15202Y55642D01*
X14927Y55886D01*
X14657Y56136D01*
X14393Y56393D01*
X14136Y56657D01*
X13886Y56927D01*
X13642Y57202D01*
X13405Y57484D01*
X13175Y57772D01*
X12952Y58065D01*
X12736Y58363D01*
X12528Y58666D01*
X12327Y58975D01*
X12134Y59288D01*
X11949Y59607D01*
X11771Y59929D01*
X11602Y60256D01*
X11440Y60587D01*
X11287Y60921D01*
X11142Y61260D01*
X11005Y61602D01*
X10877Y61947D01*
X10757Y62295D01*
X10646Y62646D01*
X10543Y62999D01*
X10450Y63355D01*
X10364Y63713D01*
X10288Y64074D01*
X10221Y64436D01*
X10162Y64799D01*
X10113Y65164D01*
X10072Y65530D01*
X10041Y65897D01*
X10018Y66264D01*
X10005Y66632D01*
X10000Y67000D01*
M02*
