M48
;GenerationSoftware,Autodesk,EAGLE,9.1.1*%
;CreationDate,2018-08-21T07:54:40Z*%
FMAT,2
ICI,OFF
METRIC,TZ,000.000
T3C0.305
T2C0.889
T1C3.000
%
G90
M71
T1
X2500Y6700
T2
X6190Y1500
X8730Y1500
X11270Y1500
X13810Y1500
T3
X7569Y2337
X9982Y914
X12497Y864
X8661Y9474
X1448Y14605
X1422Y17348
X11989Y15088
X8407Y14491
X4039Y16510
X11354Y12598
X7950Y6020
X10160Y17628
X7417Y16510
X4318Y1448
X15697Y1448
X18466Y17323
X18440Y14605
M30