G04 EAGLE Gerber RS-274X export*
G75*
%MOMM*%
%FSLAX34Y34*%
%LPD*%
%AMOC8*
5,1,8,0,0,1.08239X$1,22.5*%
G01*
%ADD10C,3.101600*%
%ADD11C,0.326897*%
%ADD12R,1.752600X1.752600*%
%ADD13C,1.752600*%
%ADD14R,1.451600X0.701600*%
%ADD15R,2.101600X1.301600*%
%ADD16R,0.736600X1.371600*%
%ADD17C,0.203200*%
%ADD18R,1.001600X0.451600*%
%ADD19R,1.101600X0.451600*%


D10*
X25000Y67000D03*
D11*
X91423Y73931D02*
X98061Y73931D01*
X98061Y67293D01*
X91423Y67293D01*
X91423Y73931D01*
X91423Y70399D02*
X98061Y70399D01*
X98061Y73505D02*
X91423Y73505D01*
X82821Y73931D02*
X76183Y73931D01*
X82821Y73931D02*
X82821Y67293D01*
X76183Y67293D01*
X76183Y73931D01*
X76183Y70399D02*
X82821Y70399D01*
X82821Y73505D02*
X76183Y73505D01*
D12*
X61900Y15000D03*
D13*
X87300Y15000D03*
X112700Y15000D03*
X138100Y15000D03*
D14*
X52000Y175000D03*
X52000Y165000D03*
X52000Y155000D03*
X52000Y145000D03*
D15*
X15250Y132000D03*
X15250Y188000D03*
D14*
X148000Y145000D03*
X148000Y155000D03*
X148000Y165000D03*
X148000Y175000D03*
D15*
X184750Y188000D03*
X184750Y132000D03*
D16*
X109728Y186690D03*
X101600Y186690D03*
X93472Y186690D03*
D17*
X92710Y186690D02*
X110236Y186690D01*
D11*
X97299Y146829D02*
X97299Y140191D01*
X90661Y140191D01*
X90661Y146829D01*
X97299Y146829D01*
X97299Y143297D02*
X90661Y143297D01*
X90661Y146403D02*
X97299Y146403D01*
X97299Y155431D02*
X97299Y162069D01*
X97299Y155431D02*
X90661Y155431D01*
X90661Y162069D01*
X97299Y162069D01*
X97299Y158537D02*
X90661Y158537D01*
X90661Y161643D02*
X97299Y161643D01*
X112539Y146829D02*
X112539Y140191D01*
X105901Y140191D01*
X105901Y146829D01*
X112539Y146829D01*
X112539Y143297D02*
X105901Y143297D01*
X105901Y146403D02*
X112539Y146403D01*
X112539Y155431D02*
X112539Y162069D01*
X112539Y155431D02*
X105901Y155431D01*
X105901Y162069D01*
X112539Y162069D01*
X112539Y158537D02*
X105901Y158537D01*
X105901Y161643D02*
X112539Y161643D01*
D18*
X109500Y102430D03*
X90500Y102430D03*
X109500Y109430D03*
D19*
X91000Y109430D03*
M02*
