G04 EAGLE Gerber RS-274X export*
G75*
%MOMM*%
%FSLAX34Y34*%
%LPD*%
%AMOC8*
5,1,8,0,0,1.08239X$1,22.5*%
G01*
%ADD10R,1.651000X1.651000*%
%ADD11C,1.651000*%
%ADD12C,0.609600*%
%ADD13C,0.203200*%
%ADD14C,0.304800*%

G36*
X51080Y5223D02*
X51080Y5223D01*
X51182Y5231D01*
X51210Y5243D01*
X51241Y5248D01*
X51333Y5292D01*
X51429Y5330D01*
X51452Y5350D01*
X51480Y5363D01*
X51555Y5433D01*
X51635Y5498D01*
X51652Y5524D01*
X51674Y5545D01*
X51725Y5634D01*
X51782Y5719D01*
X51788Y5743D01*
X51806Y5775D01*
X51864Y6035D01*
X51861Y6073D01*
X51866Y6096D01*
X51866Y23992D01*
X52908Y25034D01*
X70892Y25034D01*
X71934Y23992D01*
X71934Y6096D01*
X71949Y5994D01*
X71957Y5892D01*
X71969Y5864D01*
X71974Y5833D01*
X72018Y5741D01*
X72056Y5645D01*
X72076Y5622D01*
X72089Y5594D01*
X72159Y5519D01*
X72224Y5439D01*
X72250Y5422D01*
X72271Y5400D01*
X72360Y5349D01*
X72445Y5292D01*
X72469Y5286D01*
X72501Y5268D01*
X72761Y5210D01*
X72799Y5213D01*
X72822Y5208D01*
X80758Y5208D01*
X80809Y5215D01*
X80861Y5214D01*
X80940Y5235D01*
X81021Y5248D01*
X81067Y5270D01*
X81117Y5284D01*
X81186Y5328D01*
X81260Y5363D01*
X81298Y5398D01*
X81341Y5426D01*
X81395Y5489D01*
X81454Y5545D01*
X81480Y5589D01*
X81513Y5629D01*
X81546Y5704D01*
X81586Y5775D01*
X81598Y5826D01*
X81618Y5873D01*
X81626Y5955D01*
X81644Y6035D01*
X81640Y6086D01*
X81645Y6138D01*
X81629Y6218D01*
X81623Y6300D01*
X81603Y6348D01*
X81593Y6398D01*
X81566Y6442D01*
X81524Y6547D01*
X81411Y6686D01*
X81386Y6724D01*
X78794Y9316D01*
X77266Y13004D01*
X77266Y16996D01*
X78794Y20684D01*
X81616Y23506D01*
X85304Y25034D01*
X89296Y25034D01*
X92984Y23506D01*
X95806Y20684D01*
X97334Y16996D01*
X97334Y13004D01*
X95806Y9316D01*
X93214Y6724D01*
X93183Y6683D01*
X93146Y6647D01*
X93105Y6576D01*
X93056Y6510D01*
X93039Y6461D01*
X93014Y6417D01*
X92996Y6337D01*
X92969Y6259D01*
X92967Y6207D01*
X92956Y6157D01*
X92962Y6075D01*
X92960Y5993D01*
X92973Y5944D01*
X92977Y5892D01*
X93008Y5816D01*
X93030Y5737D01*
X93057Y5693D01*
X93076Y5645D01*
X93128Y5582D01*
X93172Y5513D01*
X93211Y5479D01*
X93244Y5439D01*
X93312Y5394D01*
X93375Y5341D01*
X93422Y5320D01*
X93465Y5292D01*
X93516Y5280D01*
X93619Y5236D01*
X93798Y5218D01*
X93842Y5208D01*
X106158Y5208D01*
X106209Y5215D01*
X106261Y5214D01*
X106340Y5235D01*
X106421Y5248D01*
X106467Y5270D01*
X106517Y5284D01*
X106586Y5328D01*
X106660Y5363D01*
X106698Y5398D01*
X106741Y5426D01*
X106795Y5489D01*
X106854Y5545D01*
X106880Y5589D01*
X106913Y5629D01*
X106946Y5704D01*
X106986Y5775D01*
X106998Y5826D01*
X107018Y5873D01*
X107026Y5955D01*
X107044Y6035D01*
X107040Y6086D01*
X107045Y6138D01*
X107029Y6218D01*
X107023Y6300D01*
X107003Y6348D01*
X106993Y6398D01*
X106966Y6442D01*
X106924Y6547D01*
X106811Y6686D01*
X106786Y6724D01*
X104194Y9316D01*
X102666Y13004D01*
X102666Y16996D01*
X104194Y20684D01*
X107016Y23506D01*
X108849Y24265D01*
X108902Y24297D01*
X108960Y24320D01*
X109015Y24366D01*
X109077Y24403D01*
X109118Y24449D01*
X109166Y24488D01*
X109206Y24548D01*
X109253Y24601D01*
X109279Y24657D01*
X109313Y24709D01*
X109324Y24756D01*
X109363Y24843D01*
X109390Y25055D01*
X109397Y25086D01*
X109397Y25264D01*
X109394Y25285D01*
X109396Y25306D01*
X109374Y25416D01*
X109357Y25527D01*
X109348Y25546D01*
X109344Y25566D01*
X109320Y25605D01*
X109242Y25766D01*
X109165Y25849D01*
X109137Y25892D01*
X79918Y55111D01*
X79901Y55124D01*
X79888Y55140D01*
X79794Y55202D01*
X79704Y55269D01*
X79684Y55276D01*
X79667Y55287D01*
X79622Y55297D01*
X79453Y55356D01*
X79340Y55360D01*
X79290Y55371D01*
X77503Y55371D01*
X74675Y58199D01*
X74675Y59986D01*
X74672Y60007D01*
X74674Y60028D01*
X74652Y60138D01*
X74635Y60249D01*
X74626Y60268D01*
X74622Y60288D01*
X74598Y60327D01*
X74520Y60488D01*
X74443Y60571D01*
X74415Y60614D01*
X70865Y64164D01*
X70865Y161209D01*
X70862Y161229D01*
X70864Y161250D01*
X70842Y161361D01*
X70825Y161472D01*
X70816Y161490D01*
X70812Y161511D01*
X70788Y161550D01*
X70710Y161711D01*
X70633Y161793D01*
X70605Y161837D01*
X69341Y163101D01*
X69341Y167099D01*
X72169Y169927D01*
X73956Y169927D01*
X73977Y169930D01*
X73998Y169928D01*
X74108Y169950D01*
X74219Y169967D01*
X74238Y169976D01*
X74258Y169980D01*
X74297Y170004D01*
X74458Y170082D01*
X74541Y170159D01*
X74584Y170187D01*
X83976Y179579D01*
X97709Y179579D01*
X97729Y179582D01*
X97750Y179580D01*
X97861Y179602D01*
X97972Y179619D01*
X97990Y179628D01*
X98011Y179632D01*
X98050Y179656D01*
X98211Y179734D01*
X98293Y179811D01*
X98337Y179839D01*
X99601Y181103D01*
X103599Y181103D01*
X106427Y178275D01*
X106427Y174277D01*
X103599Y171449D01*
X99601Y171449D01*
X98337Y172713D01*
X98320Y172726D01*
X98307Y172742D01*
X98213Y172804D01*
X98123Y172871D01*
X98103Y172878D01*
X98086Y172889D01*
X98041Y172899D01*
X97872Y172958D01*
X97759Y172962D01*
X97709Y172973D01*
X87080Y172973D01*
X87059Y172970D01*
X87038Y172972D01*
X86928Y172950D01*
X86817Y172933D01*
X86798Y172924D01*
X86778Y172920D01*
X86739Y172896D01*
X86578Y172818D01*
X86495Y172741D01*
X86452Y172713D01*
X79255Y165516D01*
X79242Y165499D01*
X79226Y165486D01*
X79164Y165392D01*
X79097Y165302D01*
X79090Y165282D01*
X79079Y165265D01*
X79069Y165220D01*
X79010Y165051D01*
X79006Y164938D01*
X78995Y164888D01*
X78995Y163101D01*
X77731Y161837D01*
X77718Y161820D01*
X77702Y161807D01*
X77640Y161713D01*
X77573Y161623D01*
X77566Y161603D01*
X77555Y161586D01*
X77545Y161541D01*
X77486Y161372D01*
X77482Y161259D01*
X77471Y161209D01*
X77471Y131022D01*
X77474Y131001D01*
X77472Y130980D01*
X77494Y130870D01*
X77511Y130759D01*
X77520Y130740D01*
X77524Y130720D01*
X77548Y130681D01*
X77626Y130520D01*
X77703Y130437D01*
X77731Y130394D01*
X78578Y129547D01*
X78595Y129534D01*
X78608Y129518D01*
X78702Y129456D01*
X78792Y129389D01*
X78812Y129382D01*
X78829Y129371D01*
X78874Y129361D01*
X79043Y129302D01*
X79156Y129298D01*
X79206Y129287D01*
X109647Y129287D01*
X109668Y129290D01*
X109688Y129288D01*
X109799Y129310D01*
X109910Y129327D01*
X109928Y129336D01*
X109949Y129340D01*
X109988Y129364D01*
X110149Y129442D01*
X110231Y129519D01*
X110275Y129547D01*
X111539Y130811D01*
X115537Y130811D01*
X118365Y127983D01*
X118365Y123985D01*
X115537Y121157D01*
X111539Y121157D01*
X110275Y122421D01*
X110258Y122434D01*
X110245Y122450D01*
X110151Y122512D01*
X110061Y122579D01*
X110041Y122586D01*
X110024Y122597D01*
X109979Y122607D01*
X109810Y122666D01*
X109697Y122670D01*
X109647Y122681D01*
X79206Y122681D01*
X79185Y122678D01*
X79164Y122680D01*
X79054Y122658D01*
X78943Y122641D01*
X78924Y122632D01*
X78904Y122628D01*
X78865Y122604D01*
X78704Y122526D01*
X78621Y122449D01*
X78578Y122421D01*
X77731Y121574D01*
X77718Y121557D01*
X77702Y121544D01*
X77640Y121450D01*
X77573Y121360D01*
X77566Y121340D01*
X77555Y121323D01*
X77545Y121278D01*
X77486Y121109D01*
X77482Y120996D01*
X77471Y120946D01*
X77471Y67268D01*
X77474Y67247D01*
X77472Y67226D01*
X77494Y67116D01*
X77511Y67005D01*
X77520Y66986D01*
X77524Y66966D01*
X77548Y66927D01*
X77626Y66766D01*
X77703Y66683D01*
X77731Y66640D01*
X79086Y65285D01*
X79103Y65272D01*
X79116Y65256D01*
X79210Y65194D01*
X79300Y65127D01*
X79320Y65120D01*
X79337Y65109D01*
X79382Y65099D01*
X79551Y65040D01*
X79664Y65036D01*
X79714Y65025D01*
X81501Y65025D01*
X84329Y62197D01*
X84329Y60410D01*
X84332Y60389D01*
X84330Y60368D01*
X84352Y60258D01*
X84369Y60147D01*
X84378Y60128D01*
X84382Y60108D01*
X84406Y60069D01*
X84484Y59908D01*
X84561Y59825D01*
X84589Y59782D01*
X116003Y28368D01*
X116003Y25086D01*
X116012Y25025D01*
X116011Y24963D01*
X116032Y24894D01*
X116043Y24823D01*
X116070Y24767D01*
X116087Y24708D01*
X116127Y24648D01*
X116158Y24584D01*
X116201Y24538D01*
X116235Y24487D01*
X116274Y24459D01*
X116340Y24389D01*
X116526Y24283D01*
X116551Y24265D01*
X118384Y23506D01*
X121206Y20684D01*
X122734Y16996D01*
X122734Y13004D01*
X121206Y9316D01*
X118614Y6724D01*
X118583Y6683D01*
X118546Y6647D01*
X118505Y6576D01*
X118456Y6510D01*
X118439Y6461D01*
X118414Y6417D01*
X118396Y6337D01*
X118369Y6259D01*
X118367Y6207D01*
X118356Y6157D01*
X118362Y6075D01*
X118360Y5993D01*
X118373Y5944D01*
X118377Y5892D01*
X118408Y5816D01*
X118430Y5737D01*
X118457Y5693D01*
X118476Y5645D01*
X118528Y5582D01*
X118572Y5513D01*
X118611Y5479D01*
X118644Y5439D01*
X118712Y5394D01*
X118775Y5341D01*
X118822Y5320D01*
X118865Y5292D01*
X118916Y5280D01*
X119019Y5236D01*
X119198Y5218D01*
X119242Y5208D01*
X130480Y5208D01*
X130531Y5215D01*
X130583Y5214D01*
X130662Y5235D01*
X130743Y5248D01*
X130790Y5270D01*
X130839Y5284D01*
X130909Y5328D01*
X130983Y5363D01*
X131020Y5398D01*
X131064Y5426D01*
X131117Y5489D01*
X131177Y5545D01*
X131202Y5589D01*
X131236Y5629D01*
X131268Y5704D01*
X131309Y5775D01*
X131320Y5826D01*
X131340Y5873D01*
X131349Y5955D01*
X131367Y6035D01*
X131362Y6086D01*
X131368Y6138D01*
X131352Y6218D01*
X131345Y6300D01*
X131326Y6348D01*
X131316Y6398D01*
X131288Y6442D01*
X131246Y6547D01*
X131133Y6686D01*
X131108Y6724D01*
X129865Y7967D01*
X128867Y9342D01*
X128095Y10856D01*
X127570Y12472D01*
X127451Y13223D01*
X137211Y13223D01*
X137312Y13238D01*
X137415Y13246D01*
X137443Y13258D01*
X137474Y13263D01*
X137566Y13307D01*
X137661Y13345D01*
X137685Y13365D01*
X137713Y13378D01*
X137788Y13448D01*
X137868Y13513D01*
X137885Y13539D01*
X137907Y13560D01*
X137958Y13649D01*
X138015Y13734D01*
X138020Y13758D01*
X138039Y13790D01*
X138097Y14050D01*
X138094Y14088D01*
X138099Y14111D01*
X138099Y15001D01*
X138101Y15001D01*
X138101Y14111D01*
X138116Y14009D01*
X138125Y13907D01*
X138136Y13879D01*
X138141Y13848D01*
X138185Y13756D01*
X138224Y13660D01*
X138243Y13637D01*
X138256Y13609D01*
X138326Y13534D01*
X138391Y13454D01*
X138417Y13437D01*
X138438Y13415D01*
X138527Y13364D01*
X138612Y13307D01*
X138636Y13301D01*
X138669Y13283D01*
X138928Y13225D01*
X138966Y13228D01*
X138989Y13223D01*
X148749Y13223D01*
X148630Y12472D01*
X148105Y10856D01*
X147333Y9342D01*
X146335Y7967D01*
X145092Y6724D01*
X145061Y6683D01*
X145023Y6647D01*
X144982Y6576D01*
X144934Y6510D01*
X144917Y6461D01*
X144891Y6417D01*
X144873Y6337D01*
X144846Y6259D01*
X144845Y6207D01*
X144833Y6157D01*
X144840Y6075D01*
X144837Y5993D01*
X144851Y5944D01*
X144855Y5892D01*
X144886Y5816D01*
X144907Y5737D01*
X144935Y5693D01*
X144954Y5645D01*
X145006Y5582D01*
X145050Y5513D01*
X145089Y5479D01*
X145122Y5439D01*
X145190Y5394D01*
X145252Y5341D01*
X145300Y5320D01*
X145343Y5292D01*
X145393Y5280D01*
X145497Y5236D01*
X145675Y5218D01*
X145720Y5208D01*
X193904Y5208D01*
X194006Y5223D01*
X194108Y5231D01*
X194136Y5243D01*
X194167Y5248D01*
X194259Y5292D01*
X194355Y5330D01*
X194378Y5350D01*
X194406Y5363D01*
X194481Y5433D01*
X194561Y5498D01*
X194578Y5524D01*
X194600Y5545D01*
X194651Y5634D01*
X194708Y5719D01*
X194714Y5743D01*
X194732Y5775D01*
X194790Y6035D01*
X194787Y6073D01*
X194792Y6096D01*
X194792Y193904D01*
X194777Y194006D01*
X194769Y194108D01*
X194757Y194136D01*
X194752Y194167D01*
X194708Y194259D01*
X194670Y194355D01*
X194650Y194378D01*
X194637Y194406D01*
X194567Y194481D01*
X194502Y194561D01*
X194476Y194578D01*
X194455Y194600D01*
X194366Y194651D01*
X194281Y194708D01*
X194257Y194714D01*
X194225Y194732D01*
X193965Y194790D01*
X193927Y194787D01*
X193904Y194792D01*
X6096Y194792D01*
X5994Y194777D01*
X5892Y194769D01*
X5864Y194757D01*
X5833Y194752D01*
X5741Y194708D01*
X5645Y194670D01*
X5622Y194650D01*
X5594Y194637D01*
X5519Y194567D01*
X5439Y194502D01*
X5422Y194476D01*
X5400Y194455D01*
X5349Y194366D01*
X5292Y194281D01*
X5286Y194257D01*
X5268Y194225D01*
X5210Y193965D01*
X5213Y193927D01*
X5208Y193904D01*
X5208Y76156D01*
X5222Y76065D01*
X5227Y75973D01*
X5241Y75934D01*
X5248Y75893D01*
X5288Y75810D01*
X5320Y75724D01*
X5345Y75691D01*
X5363Y75654D01*
X5426Y75586D01*
X5483Y75514D01*
X5516Y75490D01*
X5545Y75460D01*
X5625Y75414D01*
X5700Y75361D01*
X5740Y75348D01*
X5775Y75328D01*
X5865Y75308D01*
X5953Y75279D01*
X5995Y75279D01*
X6035Y75270D01*
X6127Y75278D01*
X6219Y75277D01*
X6259Y75288D01*
X6300Y75292D01*
X6385Y75326D01*
X6474Y75352D01*
X6508Y75375D01*
X6547Y75391D01*
X6618Y75449D01*
X6695Y75500D01*
X6713Y75526D01*
X6753Y75558D01*
X6900Y75779D01*
X6905Y75799D01*
X6917Y75816D01*
X7976Y78375D01*
X13625Y84024D01*
X21006Y87081D01*
X28994Y87081D01*
X36375Y84024D01*
X42024Y78375D01*
X45081Y70994D01*
X45081Y63006D01*
X42024Y55625D01*
X36375Y49976D01*
X28994Y46919D01*
X21006Y46919D01*
X13625Y49976D01*
X7976Y55625D01*
X6917Y58184D01*
X6869Y58263D01*
X6829Y58346D01*
X6801Y58376D01*
X6779Y58411D01*
X6710Y58473D01*
X6647Y58540D01*
X6611Y58561D01*
X6581Y58588D01*
X6497Y58626D01*
X6417Y58672D01*
X6376Y58681D01*
X6339Y58698D01*
X6247Y58710D01*
X6157Y58730D01*
X6116Y58727D01*
X6075Y58732D01*
X5984Y58716D01*
X5892Y58708D01*
X5854Y58693D01*
X5813Y58686D01*
X5731Y58644D01*
X5645Y58609D01*
X5613Y58583D01*
X5577Y58565D01*
X5511Y58500D01*
X5439Y58442D01*
X5416Y58407D01*
X5387Y58379D01*
X5343Y58297D01*
X5292Y58221D01*
X5285Y58190D01*
X5260Y58145D01*
X5209Y57884D01*
X5212Y57864D01*
X5208Y57844D01*
X5208Y6096D01*
X5223Y5994D01*
X5231Y5892D01*
X5243Y5864D01*
X5248Y5833D01*
X5292Y5741D01*
X5330Y5645D01*
X5350Y5622D01*
X5363Y5594D01*
X5433Y5519D01*
X5498Y5439D01*
X5524Y5422D01*
X5545Y5400D01*
X5634Y5349D01*
X5719Y5292D01*
X5743Y5286D01*
X5775Y5268D01*
X6035Y5210D01*
X6073Y5213D01*
X6096Y5208D01*
X50978Y5208D01*
X51080Y5223D01*
G37*
%LPC*%
G36*
X82075Y140080D02*
X82075Y140080D01*
X79247Y142908D01*
X79247Y146906D01*
X82075Y149734D01*
X86073Y149734D01*
X87845Y147962D01*
X87862Y147949D01*
X87875Y147933D01*
X87969Y147871D01*
X88059Y147804D01*
X88079Y147797D01*
X88096Y147786D01*
X88141Y147776D01*
X88310Y147717D01*
X88423Y147713D01*
X88473Y147702D01*
X112393Y147702D01*
X112414Y147705D01*
X112435Y147703D01*
X112545Y147725D01*
X112656Y147742D01*
X112675Y147751D01*
X112696Y147755D01*
X112734Y147779D01*
X112896Y147857D01*
X112978Y147934D01*
X113022Y147962D01*
X114801Y149741D01*
X114814Y149758D01*
X114830Y149772D01*
X114892Y149865D01*
X114959Y149955D01*
X114966Y149975D01*
X114977Y149993D01*
X114987Y150037D01*
X115046Y150206D01*
X115050Y150319D01*
X115061Y150370D01*
X115061Y152875D01*
X117889Y155703D01*
X121887Y155703D01*
X124715Y152875D01*
X124715Y148877D01*
X121887Y146049D01*
X119382Y146049D01*
X119361Y146046D01*
X119340Y146048D01*
X119230Y146026D01*
X119119Y146009D01*
X119100Y146000D01*
X119079Y145996D01*
X119041Y145972D01*
X118879Y145894D01*
X118797Y145817D01*
X118753Y145789D01*
X115077Y142112D01*
X88473Y142112D01*
X88453Y142109D01*
X88432Y142111D01*
X88321Y142089D01*
X88210Y142072D01*
X88192Y142063D01*
X88171Y142059D01*
X88132Y142035D01*
X87971Y141957D01*
X87889Y141880D01*
X87845Y141852D01*
X86073Y140080D01*
X82075Y140080D01*
G37*
%LPD*%
%LPC*%
G36*
X182659Y168401D02*
X182659Y168401D01*
X179831Y171229D01*
X179831Y175227D01*
X182659Y178055D01*
X186657Y178055D01*
X189485Y175227D01*
X189485Y171229D01*
X186657Y168401D01*
X182659Y168401D01*
G37*
%LPD*%
%LPC*%
G36*
X38387Y160273D02*
X38387Y160273D01*
X35559Y163101D01*
X35559Y167099D01*
X38387Y169927D01*
X42385Y169927D01*
X45213Y167099D01*
X45213Y163101D01*
X42385Y160273D01*
X38387Y160273D01*
G37*
%LPD*%
%LPC*%
G36*
X182405Y141223D02*
X182405Y141223D01*
X179577Y144051D01*
X179577Y148049D01*
X182405Y150877D01*
X186403Y150877D01*
X189231Y148049D01*
X189231Y144051D01*
X186403Y141223D01*
X182405Y141223D01*
G37*
%LPD*%
%LPC*%
G36*
X41181Y9651D02*
X41181Y9651D01*
X38353Y12479D01*
X38353Y16477D01*
X41181Y19305D01*
X45179Y19305D01*
X48007Y16477D01*
X48007Y12479D01*
X45179Y9651D01*
X41181Y9651D01*
G37*
%LPD*%
%LPC*%
G36*
X154973Y9651D02*
X154973Y9651D01*
X152145Y12479D01*
X152145Y16477D01*
X154973Y19305D01*
X158971Y19305D01*
X161799Y16477D01*
X161799Y12479D01*
X158971Y9651D01*
X154973Y9651D01*
G37*
%LPD*%
%LPC*%
G36*
X139877Y16777D02*
X139877Y16777D01*
X139877Y25649D01*
X140628Y25530D01*
X142244Y25005D01*
X143758Y24233D01*
X145133Y23235D01*
X146335Y22033D01*
X147333Y20658D01*
X148105Y19144D01*
X148630Y17528D01*
X148749Y16777D01*
X139877Y16777D01*
G37*
%LPD*%
%LPC*%
G36*
X127451Y16777D02*
X127451Y16777D01*
X127570Y17528D01*
X128095Y19144D01*
X128867Y20658D01*
X129865Y22033D01*
X131067Y23235D01*
X132442Y24233D01*
X133956Y25005D01*
X135572Y25530D01*
X136323Y25649D01*
X136323Y16777D01*
X127451Y16777D01*
G37*
%LPD*%
D10*
X61900Y15000D03*
D11*
X87300Y15000D03*
X112700Y15000D03*
X138100Y15000D03*
D12*
X75692Y23368D03*
X99822Y9144D03*
X124968Y8636D03*
X86614Y94742D03*
X14478Y146050D03*
X14224Y173482D03*
X119888Y150876D03*
D13*
X113919Y144907D01*
X84074Y144907D01*
D12*
X84074Y144907D03*
X40386Y165100D03*
X113538Y125984D03*
X79502Y60198D03*
D14*
X81407Y58293D01*
X112700Y27000D01*
X112700Y15000D01*
D12*
X101600Y176276D03*
X74168Y165100D03*
D14*
X74168Y131318D01*
X74168Y129286D01*
X74168Y122682D01*
X74168Y65532D01*
X81407Y58293D01*
X85344Y176276D02*
X101600Y176276D01*
X85344Y176276D02*
X74168Y165100D01*
X77470Y125984D02*
X113538Y125984D01*
X77470Y125984D02*
X74168Y129286D01*
X77470Y125984D02*
X74168Y122682D01*
D12*
X43180Y14478D03*
X156972Y14478D03*
X184658Y173228D03*
X184404Y146050D03*
M02*
