G04 EAGLE Gerber RS-274X export*
G75*
%MOMM*%
%FSLAX34Y34*%
%LPD*%
%AMOC8*
5,1,8,0,0,1.08239X$1,22.5*%
G01*
%ADD10C,0.222250*%
%ADD11R,1.651000X1.651000*%
%ADD12C,1.651000*%
%ADD13R,1.350000X0.600000*%
%ADD14R,2.000000X1.200000*%
%ADD15R,0.635000X1.270000*%
%ADD16C,0.203200*%
%ADD17R,0.900000X0.350000*%
%ADD18R,1.000000X0.350000*%
%ADD19C,0.609600*%
%ADD20C,0.304800*%

G36*
X106209Y5215D02*
X106209Y5215D01*
X106261Y5214D01*
X106340Y5235D01*
X106421Y5248D01*
X106467Y5270D01*
X106517Y5284D01*
X106586Y5328D01*
X106660Y5363D01*
X106698Y5398D01*
X106741Y5426D01*
X106795Y5489D01*
X106854Y5545D01*
X106880Y5589D01*
X106913Y5629D01*
X106946Y5704D01*
X106986Y5775D01*
X106998Y5826D01*
X107018Y5873D01*
X107026Y5955D01*
X107044Y6035D01*
X107040Y6086D01*
X107045Y6138D01*
X107029Y6218D01*
X107023Y6300D01*
X107003Y6348D01*
X106993Y6398D01*
X106966Y6442D01*
X106924Y6547D01*
X106811Y6686D01*
X106786Y6724D01*
X104194Y9316D01*
X102666Y13004D01*
X102666Y16996D01*
X104194Y20684D01*
X107016Y23506D01*
X110704Y25034D01*
X114696Y25034D01*
X118384Y23506D01*
X121206Y20684D01*
X122734Y16996D01*
X122734Y13004D01*
X121206Y9316D01*
X118614Y6724D01*
X118583Y6683D01*
X118546Y6647D01*
X118505Y6576D01*
X118456Y6510D01*
X118439Y6461D01*
X118414Y6417D01*
X118396Y6337D01*
X118369Y6259D01*
X118367Y6207D01*
X118356Y6157D01*
X118362Y6075D01*
X118360Y5993D01*
X118373Y5944D01*
X118377Y5892D01*
X118408Y5816D01*
X118430Y5737D01*
X118457Y5693D01*
X118476Y5645D01*
X118528Y5582D01*
X118572Y5513D01*
X118611Y5479D01*
X118644Y5439D01*
X118712Y5394D01*
X118775Y5341D01*
X118822Y5320D01*
X118865Y5292D01*
X118916Y5280D01*
X119019Y5236D01*
X119198Y5218D01*
X119242Y5208D01*
X130480Y5208D01*
X130531Y5215D01*
X130583Y5214D01*
X130662Y5235D01*
X130743Y5248D01*
X130790Y5270D01*
X130839Y5284D01*
X130909Y5328D01*
X130983Y5363D01*
X131020Y5398D01*
X131064Y5426D01*
X131117Y5489D01*
X131177Y5545D01*
X131202Y5589D01*
X131236Y5629D01*
X131268Y5704D01*
X131309Y5775D01*
X131320Y5826D01*
X131340Y5873D01*
X131349Y5955D01*
X131367Y6035D01*
X131362Y6086D01*
X131368Y6138D01*
X131352Y6218D01*
X131345Y6300D01*
X131326Y6348D01*
X131316Y6398D01*
X131288Y6442D01*
X131246Y6547D01*
X131133Y6686D01*
X131108Y6724D01*
X129865Y7967D01*
X128867Y9342D01*
X128095Y10856D01*
X127570Y12472D01*
X127451Y13223D01*
X137211Y13223D01*
X137312Y13238D01*
X137415Y13246D01*
X137443Y13258D01*
X137474Y13263D01*
X137566Y13307D01*
X137661Y13345D01*
X137685Y13365D01*
X137713Y13378D01*
X137788Y13448D01*
X137868Y13513D01*
X137885Y13539D01*
X137907Y13560D01*
X137958Y13649D01*
X138015Y13734D01*
X138020Y13758D01*
X138039Y13790D01*
X138097Y14050D01*
X138094Y14088D01*
X138099Y14111D01*
X138099Y15001D01*
X138101Y15001D01*
X138101Y14111D01*
X138116Y14009D01*
X138125Y13907D01*
X138136Y13879D01*
X138141Y13848D01*
X138185Y13756D01*
X138224Y13660D01*
X138243Y13637D01*
X138256Y13609D01*
X138326Y13534D01*
X138391Y13454D01*
X138417Y13437D01*
X138438Y13415D01*
X138527Y13364D01*
X138612Y13307D01*
X138636Y13301D01*
X138669Y13283D01*
X138928Y13225D01*
X138966Y13228D01*
X138989Y13223D01*
X148749Y13223D01*
X148630Y12472D01*
X148105Y10856D01*
X147333Y9342D01*
X146335Y7967D01*
X145092Y6724D01*
X145061Y6683D01*
X145023Y6647D01*
X144982Y6576D01*
X144934Y6510D01*
X144917Y6461D01*
X144891Y6417D01*
X144873Y6337D01*
X144846Y6259D01*
X144845Y6207D01*
X144833Y6157D01*
X144840Y6075D01*
X144837Y5993D01*
X144851Y5944D01*
X144855Y5892D01*
X144886Y5816D01*
X144907Y5737D01*
X144935Y5693D01*
X144954Y5645D01*
X145006Y5582D01*
X145050Y5513D01*
X145089Y5479D01*
X145122Y5439D01*
X145190Y5394D01*
X145252Y5341D01*
X145300Y5320D01*
X145343Y5292D01*
X145393Y5280D01*
X145497Y5236D01*
X145675Y5218D01*
X145720Y5208D01*
X193904Y5208D01*
X194006Y5223D01*
X194108Y5231D01*
X194136Y5243D01*
X194167Y5248D01*
X194259Y5292D01*
X194355Y5330D01*
X194378Y5350D01*
X194406Y5363D01*
X194481Y5433D01*
X194561Y5498D01*
X194578Y5524D01*
X194600Y5545D01*
X194651Y5634D01*
X194708Y5719D01*
X194714Y5743D01*
X194732Y5775D01*
X194790Y6035D01*
X194787Y6073D01*
X194792Y6096D01*
X194792Y122571D01*
X194777Y122673D01*
X194769Y122775D01*
X194757Y122803D01*
X194752Y122834D01*
X194708Y122926D01*
X194670Y123022D01*
X194650Y123045D01*
X194637Y123073D01*
X194567Y123148D01*
X194502Y123228D01*
X194476Y123245D01*
X194455Y123267D01*
X194366Y123318D01*
X194281Y123375D01*
X194257Y123381D01*
X194225Y123399D01*
X193965Y123457D01*
X193927Y123454D01*
X193904Y123459D01*
X186527Y123459D01*
X186527Y131111D01*
X186512Y131212D01*
X186503Y131315D01*
X186492Y131343D01*
X186487Y131374D01*
X186443Y131466D01*
X186404Y131561D01*
X186385Y131585D01*
X186372Y131613D01*
X186302Y131688D01*
X186237Y131768D01*
X186211Y131785D01*
X186190Y131807D01*
X186101Y131858D01*
X186016Y131915D01*
X185992Y131920D01*
X185959Y131939D01*
X185700Y131997D01*
X185662Y131994D01*
X185639Y131999D01*
X184749Y131999D01*
X184749Y132889D01*
X184734Y132990D01*
X184725Y133093D01*
X184714Y133121D01*
X184709Y133152D01*
X184665Y133244D01*
X184626Y133339D01*
X184607Y133363D01*
X184594Y133391D01*
X184524Y133466D01*
X184459Y133546D01*
X184433Y133563D01*
X184412Y133585D01*
X184323Y133636D01*
X184238Y133693D01*
X184214Y133698D01*
X184181Y133717D01*
X183922Y133775D01*
X183884Y133772D01*
X183861Y133777D01*
X172209Y133777D01*
X172209Y138335D01*
X172382Y138981D01*
X172717Y139560D01*
X173190Y140033D01*
X173769Y140368D01*
X174415Y140541D01*
X180943Y140541D01*
X180994Y140548D01*
X181045Y140547D01*
X181125Y140568D01*
X181206Y140581D01*
X181252Y140603D01*
X181302Y140617D01*
X181371Y140661D01*
X181445Y140696D01*
X181483Y140731D01*
X181526Y140759D01*
X181579Y140822D01*
X181639Y140878D01*
X181665Y140922D01*
X181698Y140962D01*
X181731Y141037D01*
X181771Y141108D01*
X181782Y141159D01*
X181803Y141206D01*
X181811Y141288D01*
X181829Y141368D01*
X181825Y141419D01*
X181830Y141471D01*
X181814Y141551D01*
X181807Y141633D01*
X181788Y141681D01*
X181778Y141731D01*
X181750Y141775D01*
X181708Y141880D01*
X181595Y142019D01*
X181571Y142057D01*
X179577Y144051D01*
X179577Y148049D01*
X182405Y150877D01*
X186403Y150877D01*
X189231Y148049D01*
X189231Y144051D01*
X187237Y142057D01*
X187206Y142016D01*
X187169Y141980D01*
X187128Y141909D01*
X187079Y141843D01*
X187062Y141794D01*
X187037Y141750D01*
X187019Y141670D01*
X186992Y141592D01*
X186990Y141540D01*
X186979Y141490D01*
X186986Y141408D01*
X186983Y141326D01*
X186996Y141277D01*
X187001Y141225D01*
X187031Y141149D01*
X187053Y141070D01*
X187080Y141026D01*
X187100Y140978D01*
X187151Y140915D01*
X187195Y140846D01*
X187235Y140812D01*
X187267Y140772D01*
X187336Y140727D01*
X187398Y140674D01*
X187445Y140653D01*
X187488Y140625D01*
X187539Y140613D01*
X187642Y140569D01*
X187821Y140551D01*
X187865Y140541D01*
X193904Y140541D01*
X194006Y140556D01*
X194108Y140564D01*
X194136Y140576D01*
X194167Y140581D01*
X194259Y140625D01*
X194355Y140663D01*
X194378Y140683D01*
X194406Y140696D01*
X194481Y140766D01*
X194561Y140831D01*
X194578Y140857D01*
X194600Y140878D01*
X194651Y140967D01*
X194708Y141052D01*
X194714Y141076D01*
X194732Y141108D01*
X194790Y141368D01*
X194787Y141406D01*
X194792Y141429D01*
X194792Y178571D01*
X194777Y178673D01*
X194769Y178775D01*
X194757Y178803D01*
X194752Y178834D01*
X194708Y178926D01*
X194670Y179022D01*
X194650Y179045D01*
X194637Y179073D01*
X194567Y179148D01*
X194502Y179228D01*
X194476Y179245D01*
X194455Y179267D01*
X194366Y179318D01*
X194281Y179375D01*
X194257Y179381D01*
X194225Y179399D01*
X193965Y179457D01*
X193927Y179454D01*
X193904Y179459D01*
X187397Y179459D01*
X187346Y179452D01*
X187295Y179453D01*
X187215Y179432D01*
X187134Y179419D01*
X187088Y179397D01*
X187038Y179383D01*
X186969Y179339D01*
X186895Y179304D01*
X186857Y179269D01*
X186814Y179241D01*
X186761Y179178D01*
X186701Y179122D01*
X186675Y179078D01*
X186642Y179038D01*
X186609Y178963D01*
X186569Y178892D01*
X186558Y178841D01*
X186537Y178794D01*
X186529Y178712D01*
X186511Y178632D01*
X186515Y178581D01*
X186510Y178529D01*
X186526Y178449D01*
X186533Y178367D01*
X186552Y178319D01*
X186562Y178269D01*
X186590Y178225D01*
X186632Y178120D01*
X186745Y177981D01*
X186769Y177943D01*
X189485Y175227D01*
X189485Y171229D01*
X186657Y168401D01*
X182659Y168401D01*
X179831Y171229D01*
X179831Y175227D01*
X182547Y177943D01*
X182578Y177984D01*
X182615Y178020D01*
X182656Y178091D01*
X182705Y178157D01*
X182722Y178206D01*
X182747Y178250D01*
X182765Y178330D01*
X182792Y178408D01*
X182794Y178460D01*
X182805Y178510D01*
X182798Y178592D01*
X182801Y178674D01*
X182788Y178723D01*
X182783Y178775D01*
X182753Y178851D01*
X182731Y178930D01*
X182704Y178974D01*
X182684Y179022D01*
X182633Y179085D01*
X182589Y179154D01*
X182549Y179188D01*
X182517Y179228D01*
X182448Y179273D01*
X182386Y179326D01*
X182339Y179347D01*
X182296Y179375D01*
X182245Y179387D01*
X182142Y179431D01*
X181963Y179449D01*
X181919Y179459D01*
X174415Y179459D01*
X173769Y179632D01*
X173190Y179967D01*
X172717Y180440D01*
X172382Y181019D01*
X172209Y181665D01*
X172209Y186223D01*
X183861Y186223D01*
X183962Y186238D01*
X184065Y186247D01*
X184093Y186258D01*
X184124Y186263D01*
X184216Y186307D01*
X184311Y186346D01*
X184335Y186365D01*
X184363Y186378D01*
X184438Y186448D01*
X184518Y186513D01*
X184535Y186539D01*
X184557Y186560D01*
X184608Y186649D01*
X184665Y186734D01*
X184670Y186758D01*
X184689Y186790D01*
X184747Y187050D01*
X184744Y187088D01*
X184749Y187111D01*
X184749Y188889D01*
X184734Y188990D01*
X184725Y189093D01*
X184714Y189121D01*
X184709Y189152D01*
X184665Y189244D01*
X184626Y189339D01*
X184607Y189363D01*
X184594Y189391D01*
X184524Y189466D01*
X184459Y189546D01*
X184433Y189563D01*
X184412Y189585D01*
X184323Y189636D01*
X184238Y189693D01*
X184214Y189698D01*
X184181Y189717D01*
X183922Y189775D01*
X183884Y189772D01*
X183861Y189777D01*
X172209Y189777D01*
X172209Y193904D01*
X172194Y194006D01*
X172186Y194108D01*
X172174Y194136D01*
X172169Y194167D01*
X172125Y194259D01*
X172087Y194355D01*
X172067Y194378D01*
X172054Y194406D01*
X171984Y194481D01*
X171919Y194561D01*
X171893Y194578D01*
X171872Y194600D01*
X171783Y194651D01*
X171698Y194708D01*
X171674Y194714D01*
X171642Y194732D01*
X171382Y194790D01*
X171344Y194787D01*
X171321Y194792D01*
X115570Y194792D01*
X115468Y194777D01*
X115366Y194769D01*
X115338Y194757D01*
X115307Y194752D01*
X115215Y194708D01*
X115119Y194670D01*
X115096Y194650D01*
X115068Y194637D01*
X114993Y194567D01*
X114913Y194502D01*
X114896Y194476D01*
X114874Y194455D01*
X114823Y194366D01*
X114766Y194281D01*
X114760Y194257D01*
X114742Y194225D01*
X114684Y193965D01*
X114687Y193927D01*
X114682Y193904D01*
X114682Y179603D01*
X113640Y178561D01*
X113411Y178561D01*
X113309Y178546D01*
X113207Y178538D01*
X113179Y178526D01*
X113148Y178521D01*
X113056Y178477D01*
X112960Y178439D01*
X112937Y178419D01*
X112909Y178406D01*
X112834Y178336D01*
X112754Y178271D01*
X112737Y178245D01*
X112715Y178224D01*
X112664Y178135D01*
X112607Y178050D01*
X112601Y178026D01*
X112583Y177994D01*
X112525Y177734D01*
X112528Y177696D01*
X112523Y177673D01*
X112523Y165862D01*
X112538Y165760D01*
X112546Y165658D01*
X112558Y165630D01*
X112563Y165599D01*
X112607Y165507D01*
X112645Y165411D01*
X112665Y165388D01*
X112678Y165360D01*
X112748Y165285D01*
X112813Y165205D01*
X112839Y165188D01*
X112860Y165166D01*
X112949Y165115D01*
X113034Y165058D01*
X113058Y165052D01*
X113090Y165034D01*
X113350Y164976D01*
X113388Y164979D01*
X113411Y164974D01*
X113751Y164974D01*
X115444Y163281D01*
X115444Y155402D01*
X115451Y155351D01*
X115450Y155300D01*
X115471Y155220D01*
X115484Y155139D01*
X115506Y155093D01*
X115520Y155043D01*
X115564Y154974D01*
X115599Y154900D01*
X115634Y154862D01*
X115662Y154819D01*
X115725Y154766D01*
X115781Y154706D01*
X115825Y154680D01*
X115865Y154647D01*
X115940Y154614D01*
X116011Y154574D01*
X116062Y154563D01*
X116109Y154542D01*
X116191Y154534D01*
X116271Y154516D01*
X116322Y154520D01*
X116374Y154515D01*
X116454Y154531D01*
X116536Y154538D01*
X116584Y154557D01*
X116634Y154567D01*
X116678Y154595D01*
X116783Y154637D01*
X116922Y154750D01*
X116960Y154774D01*
X117889Y155703D01*
X120394Y155703D01*
X120415Y155706D01*
X120436Y155704D01*
X120546Y155726D01*
X120657Y155743D01*
X120676Y155752D01*
X120697Y155756D01*
X120735Y155780D01*
X120897Y155858D01*
X120979Y155935D01*
X121023Y155963D01*
X139211Y174151D01*
X139224Y174168D01*
X139240Y174182D01*
X139302Y174275D01*
X139369Y174365D01*
X139376Y174385D01*
X139387Y174403D01*
X139397Y174447D01*
X139456Y174616D01*
X139460Y174729D01*
X139471Y174780D01*
X139471Y178737D01*
X140513Y179779D01*
X155487Y179779D01*
X156529Y178737D01*
X156529Y171263D01*
X155894Y170628D01*
X155833Y170545D01*
X155766Y170467D01*
X155754Y170439D01*
X155736Y170414D01*
X155702Y170317D01*
X155662Y170223D01*
X155659Y170192D01*
X155649Y170163D01*
X155645Y170060D01*
X155634Y169958D01*
X155640Y169928D01*
X155639Y169897D01*
X155666Y169798D01*
X155686Y169698D01*
X155699Y169677D01*
X155709Y169641D01*
X155852Y169417D01*
X155881Y169392D01*
X155894Y169372D01*
X156529Y168737D01*
X156529Y161263D01*
X155894Y160628D01*
X155833Y160545D01*
X155766Y160467D01*
X155754Y160439D01*
X155736Y160414D01*
X155702Y160317D01*
X155662Y160223D01*
X155659Y160192D01*
X155649Y160163D01*
X155645Y160060D01*
X155634Y159958D01*
X155640Y159928D01*
X155639Y159897D01*
X155666Y159798D01*
X155686Y159698D01*
X155699Y159677D01*
X155709Y159641D01*
X155852Y159417D01*
X155881Y159392D01*
X155894Y159372D01*
X156529Y158737D01*
X156529Y151263D01*
X156432Y151167D01*
X156371Y151084D01*
X156305Y151006D01*
X156293Y150978D01*
X156275Y150953D01*
X156241Y150856D01*
X156201Y150762D01*
X156197Y150731D01*
X156187Y150702D01*
X156184Y150599D01*
X156173Y150497D01*
X156179Y150467D01*
X156178Y150436D01*
X156205Y150337D01*
X156225Y150236D01*
X156238Y150216D01*
X156248Y150180D01*
X156391Y149955D01*
X156420Y149931D01*
X156432Y149911D01*
X156783Y149560D01*
X157118Y148981D01*
X157291Y148335D01*
X157291Y146499D01*
X148611Y146499D01*
X148510Y146484D01*
X148407Y146476D01*
X148379Y146464D01*
X148348Y146459D01*
X148256Y146415D01*
X148161Y146377D01*
X148137Y146357D01*
X148109Y146344D01*
X148034Y146274D01*
X147954Y146209D01*
X147937Y146183D01*
X147915Y146162D01*
X147864Y146073D01*
X147807Y145988D01*
X147802Y145964D01*
X147783Y145932D01*
X147725Y145672D01*
X147728Y145634D01*
X147723Y145611D01*
X147723Y145277D01*
X147389Y145277D01*
X147287Y145262D01*
X147185Y145253D01*
X147157Y145242D01*
X147126Y145237D01*
X147034Y145193D01*
X146938Y145154D01*
X146915Y145135D01*
X146887Y145122D01*
X146812Y145051D01*
X146732Y144987D01*
X146715Y144961D01*
X146693Y144940D01*
X146642Y144851D01*
X146585Y144766D01*
X146579Y144742D01*
X146561Y144709D01*
X146503Y144450D01*
X146506Y144412D01*
X146501Y144389D01*
X146501Y139459D01*
X140915Y139459D01*
X140269Y139632D01*
X139690Y139967D01*
X139217Y140440D01*
X138882Y141019D01*
X138709Y141665D01*
X138709Y144340D01*
X138702Y144391D01*
X138703Y144443D01*
X138682Y144522D01*
X138669Y144603D01*
X138647Y144649D01*
X138633Y144699D01*
X138589Y144768D01*
X138554Y144842D01*
X138519Y144880D01*
X138491Y144923D01*
X138428Y144977D01*
X138372Y145037D01*
X138328Y145062D01*
X138288Y145096D01*
X138213Y145128D01*
X138142Y145168D01*
X138091Y145180D01*
X138044Y145200D01*
X137962Y145208D01*
X137882Y145226D01*
X137831Y145222D01*
X137779Y145227D01*
X137699Y145211D01*
X137617Y145205D01*
X137569Y145185D01*
X137519Y145175D01*
X137475Y145148D01*
X137370Y145106D01*
X137231Y144993D01*
X137193Y144968D01*
X118625Y126400D01*
X118612Y126383D01*
X118596Y126370D01*
X118534Y126276D01*
X118467Y126186D01*
X118460Y126166D01*
X118449Y126149D01*
X118439Y126104D01*
X118380Y125935D01*
X118376Y125822D01*
X118365Y125772D01*
X118365Y123985D01*
X115537Y121157D01*
X111539Y121157D01*
X108711Y123985D01*
X108711Y127983D01*
X111539Y130811D01*
X113326Y130811D01*
X113347Y130814D01*
X113368Y130812D01*
X113478Y130834D01*
X113589Y130851D01*
X113608Y130860D01*
X113628Y130864D01*
X113667Y130888D01*
X113828Y130966D01*
X113911Y131043D01*
X113954Y131071D01*
X122082Y139199D01*
X122113Y139240D01*
X122151Y139276D01*
X122191Y139347D01*
X122240Y139413D01*
X122257Y139462D01*
X122282Y139506D01*
X122300Y139586D01*
X122327Y139664D01*
X122329Y139716D01*
X122340Y139766D01*
X122334Y139848D01*
X122336Y139930D01*
X122323Y139979D01*
X122319Y140031D01*
X122288Y140107D01*
X122267Y140186D01*
X122239Y140230D01*
X122220Y140278D01*
X122168Y140341D01*
X122124Y140410D01*
X122085Y140444D01*
X122052Y140484D01*
X121984Y140529D01*
X121921Y140582D01*
X121874Y140603D01*
X121831Y140631D01*
X121781Y140643D01*
X121677Y140687D01*
X121499Y140705D01*
X121454Y140715D01*
X116332Y140715D01*
X116230Y140700D01*
X116128Y140692D01*
X116100Y140680D01*
X116069Y140675D01*
X115977Y140631D01*
X115881Y140593D01*
X115858Y140573D01*
X115830Y140560D01*
X115755Y140490D01*
X115675Y140425D01*
X115658Y140399D01*
X115636Y140378D01*
X115585Y140289D01*
X115528Y140204D01*
X115522Y140180D01*
X115504Y140148D01*
X115446Y139888D01*
X115449Y139850D01*
X115444Y139827D01*
X115444Y138979D01*
X113751Y137286D01*
X107317Y137286D01*
X107296Y137283D01*
X107275Y137285D01*
X107165Y137263D01*
X107054Y137246D01*
X107035Y137237D01*
X107014Y137233D01*
X106976Y137209D01*
X106814Y137131D01*
X106732Y137054D01*
X106688Y137026D01*
X105671Y136009D01*
X105658Y135992D01*
X105642Y135978D01*
X105580Y135885D01*
X105513Y135795D01*
X105506Y135775D01*
X105495Y135757D01*
X105485Y135713D01*
X105426Y135544D01*
X105422Y135431D01*
X105411Y135380D01*
X105411Y114302D01*
X105414Y114281D01*
X105412Y114260D01*
X105434Y114150D01*
X105451Y114039D01*
X105460Y114020D01*
X105464Y113999D01*
X105488Y113961D01*
X105566Y113799D01*
X105643Y113717D01*
X105671Y113673D01*
X106125Y113219D01*
X106142Y113207D01*
X106156Y113190D01*
X106249Y113128D01*
X106339Y113061D01*
X106359Y113054D01*
X106377Y113043D01*
X106421Y113033D01*
X106590Y112974D01*
X106703Y112970D01*
X106754Y112959D01*
X114737Y112959D01*
X115779Y111917D01*
X115779Y106888D01*
X115775Y106883D01*
X115756Y106830D01*
X115733Y106789D01*
X115722Y106742D01*
X115701Y106691D01*
X115697Y106661D01*
X115687Y106632D01*
X115685Y106576D01*
X115675Y106529D01*
X115679Y106481D01*
X115673Y106427D01*
X115679Y106397D01*
X115678Y106366D01*
X115693Y106313D01*
X115697Y106264D01*
X115715Y106219D01*
X115725Y106166D01*
X115738Y106146D01*
X115748Y106110D01*
X115777Y106065D01*
X115796Y106018D01*
X115846Y105955D01*
X115891Y105885D01*
X115920Y105861D01*
X115932Y105841D01*
X116033Y105740D01*
X116368Y105161D01*
X116541Y104515D01*
X116541Y103318D01*
X109500Y103318D01*
X109399Y103303D01*
X109296Y103295D01*
X109268Y103283D01*
X109238Y103279D01*
X109145Y103234D01*
X109050Y103196D01*
X109026Y103176D01*
X108998Y103163D01*
X108923Y103093D01*
X108843Y103028D01*
X108826Y103002D01*
X108804Y102981D01*
X108753Y102893D01*
X108696Y102807D01*
X108691Y102784D01*
X108672Y102751D01*
X108614Y102491D01*
X108617Y102453D01*
X108612Y102430D01*
X108627Y102328D01*
X108636Y102226D01*
X108647Y102197D01*
X108652Y102167D01*
X108697Y102075D01*
X108735Y101979D01*
X108754Y101955D01*
X108768Y101928D01*
X108838Y101853D01*
X108902Y101773D01*
X108928Y101756D01*
X108949Y101733D01*
X109038Y101683D01*
X109124Y101625D01*
X109147Y101620D01*
X109180Y101601D01*
X109439Y101544D01*
X109477Y101547D01*
X109500Y101542D01*
X116541Y101542D01*
X116541Y100345D01*
X116368Y99699D01*
X116033Y99120D01*
X115560Y98647D01*
X114981Y98312D01*
X114335Y98139D01*
X110388Y98139D01*
X110388Y98678D01*
X110373Y98780D01*
X110365Y98882D01*
X110353Y98911D01*
X110349Y98941D01*
X110304Y99033D01*
X110266Y99129D01*
X110246Y99153D01*
X110233Y99180D01*
X110163Y99255D01*
X110098Y99335D01*
X110072Y99352D01*
X110051Y99375D01*
X109963Y99426D01*
X109877Y99483D01*
X109854Y99488D01*
X109821Y99507D01*
X109561Y99564D01*
X109523Y99561D01*
X109500Y99567D01*
X109398Y99551D01*
X109296Y99543D01*
X109267Y99531D01*
X109237Y99527D01*
X109145Y99482D01*
X109049Y99444D01*
X109025Y99424D01*
X108998Y99411D01*
X108923Y99341D01*
X108843Y99276D01*
X108826Y99251D01*
X108803Y99230D01*
X108753Y99141D01*
X108695Y99055D01*
X108690Y99032D01*
X108671Y98999D01*
X108614Y98739D01*
X108617Y98702D01*
X108612Y98678D01*
X108612Y98139D01*
X104665Y98139D01*
X103932Y98336D01*
X103928Y98336D01*
X103925Y98338D01*
X103796Y98351D01*
X103668Y98365D01*
X103664Y98365D01*
X103661Y98365D01*
X103533Y98340D01*
X103407Y98316D01*
X103404Y98314D01*
X103400Y98313D01*
X103388Y98305D01*
X103172Y98191D01*
X103112Y98130D01*
X103074Y98106D01*
X101482Y96513D01*
X101481Y96513D01*
X90355Y85387D01*
X90342Y85370D01*
X90326Y85356D01*
X90264Y85263D01*
X90197Y85173D01*
X90190Y85153D01*
X90179Y85135D01*
X90169Y85091D01*
X90110Y84922D01*
X90106Y84809D01*
X90095Y84758D01*
X90095Y78486D01*
X90110Y78384D01*
X90118Y78282D01*
X90130Y78254D01*
X90135Y78223D01*
X90179Y78131D01*
X90217Y78035D01*
X90237Y78012D01*
X90250Y77984D01*
X90320Y77909D01*
X90385Y77829D01*
X90411Y77812D01*
X90432Y77790D01*
X90521Y77739D01*
X90606Y77682D01*
X90630Y77676D01*
X90662Y77658D01*
X90922Y77600D01*
X90960Y77603D01*
X90983Y77598D01*
X92965Y77598D01*
X92965Y71501D01*
X92980Y71400D01*
X92989Y71297D01*
X93000Y71269D01*
X93005Y71238D01*
X93049Y71146D01*
X93088Y71051D01*
X93107Y71027D01*
X93120Y70999D01*
X93190Y70924D01*
X93255Y70844D01*
X93281Y70827D01*
X93302Y70805D01*
X93391Y70754D01*
X93476Y70697D01*
X93500Y70692D01*
X93532Y70673D01*
X93792Y70615D01*
X93830Y70618D01*
X93853Y70613D01*
X94743Y70613D01*
X94743Y70611D01*
X93853Y70611D01*
X93752Y70596D01*
X93649Y70587D01*
X93621Y70576D01*
X93590Y70571D01*
X93498Y70527D01*
X93403Y70488D01*
X93379Y70469D01*
X93351Y70456D01*
X93276Y70386D01*
X93196Y70321D01*
X93179Y70295D01*
X93157Y70274D01*
X93106Y70185D01*
X93049Y70100D01*
X93043Y70076D01*
X93025Y70043D01*
X92967Y69784D01*
X92970Y69746D01*
X92965Y69723D01*
X92965Y63626D01*
X90983Y63626D01*
X90881Y63611D01*
X90779Y63603D01*
X90751Y63591D01*
X90720Y63586D01*
X90628Y63542D01*
X90532Y63504D01*
X90509Y63484D01*
X90481Y63471D01*
X90406Y63401D01*
X90326Y63336D01*
X90309Y63310D01*
X90287Y63289D01*
X90236Y63200D01*
X90179Y63115D01*
X90173Y63091D01*
X90155Y63059D01*
X90097Y62799D01*
X90100Y62761D01*
X90095Y62738D01*
X90095Y25296D01*
X90104Y25235D01*
X90103Y25173D01*
X90124Y25104D01*
X90135Y25034D01*
X90162Y24978D01*
X90179Y24918D01*
X90219Y24859D01*
X90250Y24794D01*
X90293Y24749D01*
X90327Y24697D01*
X90366Y24670D01*
X90432Y24600D01*
X90618Y24494D01*
X90643Y24476D01*
X92984Y23506D01*
X95806Y20684D01*
X97334Y16996D01*
X97334Y13004D01*
X95806Y9316D01*
X93214Y6724D01*
X93183Y6683D01*
X93146Y6647D01*
X93105Y6576D01*
X93056Y6510D01*
X93039Y6461D01*
X93014Y6417D01*
X92996Y6337D01*
X92969Y6259D01*
X92967Y6207D01*
X92956Y6157D01*
X92962Y6075D01*
X92960Y5993D01*
X92973Y5944D01*
X92977Y5892D01*
X93008Y5816D01*
X93030Y5737D01*
X93057Y5693D01*
X93076Y5645D01*
X93128Y5582D01*
X93172Y5513D01*
X93211Y5479D01*
X93244Y5439D01*
X93312Y5394D01*
X93375Y5341D01*
X93422Y5320D01*
X93465Y5292D01*
X93516Y5280D01*
X93619Y5236D01*
X93798Y5218D01*
X93842Y5208D01*
X106158Y5208D01*
X106209Y5215D01*
G37*
G36*
X51080Y5223D02*
X51080Y5223D01*
X51182Y5231D01*
X51210Y5243D01*
X51241Y5248D01*
X51333Y5292D01*
X51429Y5330D01*
X51452Y5350D01*
X51480Y5363D01*
X51555Y5433D01*
X51635Y5498D01*
X51652Y5524D01*
X51674Y5545D01*
X51725Y5634D01*
X51782Y5719D01*
X51788Y5743D01*
X51806Y5775D01*
X51864Y6035D01*
X51861Y6073D01*
X51866Y6096D01*
X51866Y23992D01*
X52908Y25034D01*
X58217Y25034D01*
X58319Y25049D01*
X58421Y25057D01*
X58449Y25069D01*
X58480Y25074D01*
X58572Y25118D01*
X58668Y25156D01*
X58691Y25176D01*
X58719Y25189D01*
X58794Y25259D01*
X58874Y25324D01*
X58891Y25350D01*
X58913Y25371D01*
X58964Y25460D01*
X59021Y25545D01*
X59027Y25569D01*
X59045Y25601D01*
X59103Y25861D01*
X59100Y25899D01*
X59105Y25922D01*
X59105Y97602D01*
X73728Y112225D01*
X84161Y112225D01*
X84182Y112228D01*
X84203Y112226D01*
X84313Y112248D01*
X84424Y112265D01*
X84443Y112274D01*
X84464Y112278D01*
X84502Y112302D01*
X84663Y112380D01*
X84746Y112457D01*
X84789Y112485D01*
X85263Y112959D01*
X94107Y112959D01*
X94209Y112974D01*
X94311Y112982D01*
X94339Y112994D01*
X94370Y112999D01*
X94462Y113043D01*
X94558Y113081D01*
X94581Y113101D01*
X94609Y113114D01*
X94684Y113184D01*
X94764Y113249D01*
X94781Y113275D01*
X94803Y113296D01*
X94854Y113385D01*
X94911Y113470D01*
X94917Y113494D01*
X94935Y113526D01*
X94993Y113786D01*
X94990Y113824D01*
X94995Y113847D01*
X94995Y136398D01*
X94980Y136500D01*
X94972Y136602D01*
X94960Y136630D01*
X94955Y136661D01*
X94911Y136753D01*
X94873Y136849D01*
X94853Y136872D01*
X94840Y136900D01*
X94770Y136975D01*
X94705Y137055D01*
X94679Y137072D01*
X94658Y137094D01*
X94569Y137145D01*
X94484Y137202D01*
X94460Y137208D01*
X94428Y137226D01*
X94168Y137284D01*
X94130Y137281D01*
X94107Y137286D01*
X89449Y137286D01*
X87756Y138979D01*
X87756Y139619D01*
X87749Y139670D01*
X87750Y139721D01*
X87729Y139801D01*
X87716Y139882D01*
X87694Y139928D01*
X87680Y139978D01*
X87636Y140047D01*
X87601Y140121D01*
X87565Y140159D01*
X87538Y140202D01*
X87475Y140255D01*
X87419Y140315D01*
X87374Y140341D01*
X87335Y140374D01*
X87260Y140407D01*
X87189Y140447D01*
X87138Y140458D01*
X87091Y140479D01*
X87009Y140487D01*
X86929Y140505D01*
X86878Y140501D01*
X86826Y140506D01*
X86746Y140490D01*
X86664Y140483D01*
X86616Y140464D01*
X86566Y140454D01*
X86522Y140426D01*
X86417Y140384D01*
X86278Y140271D01*
X86240Y140247D01*
X86073Y140080D01*
X82075Y140080D01*
X80210Y141945D01*
X80193Y141958D01*
X80180Y141974D01*
X80086Y142036D01*
X79996Y142103D01*
X79976Y142110D01*
X79959Y142121D01*
X79914Y142131D01*
X79745Y142190D01*
X79632Y142194D01*
X79582Y142205D01*
X61417Y142205D01*
X61315Y142190D01*
X61213Y142182D01*
X61185Y142170D01*
X61154Y142165D01*
X61062Y142121D01*
X60966Y142083D01*
X60943Y142063D01*
X60915Y142050D01*
X60840Y141980D01*
X60760Y141915D01*
X60743Y141889D01*
X60721Y141868D01*
X60670Y141779D01*
X60613Y141694D01*
X60607Y141670D01*
X60589Y141638D01*
X60531Y141378D01*
X60534Y141340D01*
X60529Y141317D01*
X60529Y141263D01*
X59487Y140221D01*
X44513Y140221D01*
X43471Y141263D01*
X43471Y148737D01*
X44106Y149372D01*
X44136Y149412D01*
X44167Y149441D01*
X44191Y149482D01*
X44234Y149533D01*
X44246Y149561D01*
X44264Y149586D01*
X44286Y149649D01*
X44299Y149672D01*
X44306Y149701D01*
X44338Y149777D01*
X44341Y149808D01*
X44351Y149837D01*
X44354Y149920D01*
X44357Y149931D01*
X44356Y149946D01*
X44366Y150042D01*
X44360Y150072D01*
X44361Y150103D01*
X44335Y150195D01*
X44335Y150196D01*
X44335Y150198D01*
X44334Y150202D01*
X44314Y150302D01*
X44301Y150323D01*
X44291Y150359D01*
X44148Y150583D01*
X44119Y150608D01*
X44106Y150628D01*
X43471Y151263D01*
X43471Y158737D01*
X44106Y159372D01*
X44167Y159455D01*
X44234Y159533D01*
X44246Y159561D01*
X44264Y159586D01*
X44298Y159683D01*
X44338Y159777D01*
X44341Y159808D01*
X44351Y159837D01*
X44355Y159939D01*
X44366Y160042D01*
X44360Y160072D01*
X44361Y160103D01*
X44334Y160202D01*
X44314Y160302D01*
X44301Y160323D01*
X44291Y160359D01*
X44148Y160583D01*
X44119Y160608D01*
X44106Y160628D01*
X44051Y160683D01*
X43969Y160744D01*
X43890Y160811D01*
X43862Y160823D01*
X43837Y160841D01*
X43740Y160875D01*
X43646Y160915D01*
X43615Y160918D01*
X43586Y160928D01*
X43484Y160932D01*
X43382Y160942D01*
X43351Y160936D01*
X43321Y160937D01*
X43222Y160910D01*
X43121Y160890D01*
X43101Y160877D01*
X43064Y160868D01*
X42840Y160725D01*
X42815Y160696D01*
X42795Y160683D01*
X42385Y160273D01*
X38387Y160273D01*
X35559Y163101D01*
X35559Y167099D01*
X38387Y169927D01*
X42018Y169927D01*
X42102Y169940D01*
X42188Y169943D01*
X42233Y169959D01*
X42280Y169967D01*
X42358Y170004D01*
X42438Y170033D01*
X42477Y170061D01*
X42520Y170082D01*
X42582Y170141D01*
X42651Y170192D01*
X42679Y170231D01*
X42714Y170264D01*
X42757Y170338D01*
X42807Y170407D01*
X42822Y170453D01*
X42846Y170494D01*
X42865Y170578D01*
X42892Y170659D01*
X42891Y170695D01*
X42904Y170754D01*
X42882Y171019D01*
X42876Y171034D01*
X42876Y171045D01*
X42709Y171665D01*
X42709Y173501D01*
X51389Y173501D01*
X51490Y173516D01*
X51593Y173524D01*
X51621Y173536D01*
X51652Y173540D01*
X51744Y173585D01*
X51839Y173623D01*
X51863Y173643D01*
X51891Y173656D01*
X51966Y173726D01*
X51997Y173752D01*
X52013Y173732D01*
X52039Y173715D01*
X52060Y173693D01*
X52149Y173642D01*
X52234Y173585D01*
X52258Y173579D01*
X52291Y173561D01*
X52550Y173503D01*
X52588Y173506D01*
X52611Y173501D01*
X61291Y173501D01*
X61291Y171665D01*
X61118Y171019D01*
X60783Y170440D01*
X60432Y170089D01*
X60372Y170007D01*
X60305Y169928D01*
X60293Y169900D01*
X60275Y169875D01*
X60241Y169779D01*
X60201Y169684D01*
X60197Y169653D01*
X60187Y169624D01*
X60184Y169522D01*
X60173Y169420D01*
X60179Y169389D01*
X60178Y169359D01*
X60205Y169260D01*
X60225Y169159D01*
X60238Y169139D01*
X60248Y169102D01*
X60391Y168878D01*
X60420Y168853D01*
X60432Y168833D01*
X60703Y168563D01*
X60720Y168550D01*
X60733Y168534D01*
X60826Y168472D01*
X60917Y168405D01*
X60936Y168398D01*
X60954Y168387D01*
X60998Y168377D01*
X61168Y168318D01*
X61280Y168314D01*
X61331Y168303D01*
X70177Y168303D01*
X70197Y168306D01*
X70218Y168304D01*
X70329Y168326D01*
X70440Y168343D01*
X70458Y168352D01*
X70479Y168356D01*
X70518Y168380D01*
X70679Y168458D01*
X70761Y168535D01*
X70805Y168563D01*
X72169Y169927D01*
X76167Y169927D01*
X78995Y167099D01*
X78995Y163101D01*
X76167Y160273D01*
X72169Y160273D01*
X71005Y161437D01*
X70988Y161450D01*
X70975Y161466D01*
X70881Y161528D01*
X70791Y161595D01*
X70771Y161602D01*
X70754Y161613D01*
X70709Y161623D01*
X70540Y161682D01*
X70427Y161686D01*
X70377Y161697D01*
X61331Y161697D01*
X61310Y161694D01*
X61289Y161696D01*
X61179Y161674D01*
X61068Y161657D01*
X61049Y161648D01*
X61028Y161644D01*
X60990Y161620D01*
X60829Y161542D01*
X60746Y161465D01*
X60703Y161437D01*
X59894Y160628D01*
X59833Y160546D01*
X59766Y160467D01*
X59754Y160439D01*
X59736Y160414D01*
X59702Y160317D01*
X59662Y160223D01*
X59659Y160192D01*
X59649Y160163D01*
X59645Y160061D01*
X59634Y159958D01*
X59640Y159928D01*
X59639Y159897D01*
X59666Y159798D01*
X59686Y159698D01*
X59699Y159678D01*
X59709Y159641D01*
X59852Y159417D01*
X59881Y159392D01*
X59894Y159372D01*
X60529Y158737D01*
X60529Y155120D01*
X60532Y155099D01*
X60530Y155078D01*
X60552Y154968D01*
X60569Y154857D01*
X60578Y154838D01*
X60582Y154817D01*
X60606Y154779D01*
X60684Y154617D01*
X60761Y154535D01*
X60789Y154491D01*
X61476Y153804D01*
X61493Y153792D01*
X61505Y153777D01*
X61506Y153776D01*
X61507Y153775D01*
X61600Y153713D01*
X61690Y153646D01*
X61710Y153639D01*
X61728Y153628D01*
X61772Y153618D01*
X61941Y153559D01*
X62054Y153555D01*
X62105Y153544D01*
X86868Y153544D01*
X86970Y153559D01*
X87072Y153567D01*
X87100Y153579D01*
X87131Y153584D01*
X87223Y153628D01*
X87319Y153666D01*
X87342Y153686D01*
X87370Y153699D01*
X87445Y153769D01*
X87525Y153834D01*
X87542Y153860D01*
X87564Y153881D01*
X87615Y153970D01*
X87672Y154055D01*
X87678Y154079D01*
X87696Y154111D01*
X87754Y154371D01*
X87754Y154372D01*
X87754Y154373D01*
X87751Y154409D01*
X87756Y154432D01*
X87756Y163281D01*
X89449Y164974D01*
X89789Y164974D01*
X89891Y164989D01*
X89993Y164997D01*
X90021Y165009D01*
X90052Y165014D01*
X90144Y165058D01*
X90240Y165096D01*
X90263Y165116D01*
X90291Y165129D01*
X90366Y165199D01*
X90446Y165264D01*
X90463Y165290D01*
X90485Y165311D01*
X90536Y165400D01*
X90593Y165485D01*
X90599Y165509D01*
X90617Y165541D01*
X90675Y165801D01*
X90672Y165839D01*
X90677Y165862D01*
X90677Y177673D01*
X90662Y177775D01*
X90654Y177877D01*
X90642Y177905D01*
X90637Y177936D01*
X90593Y178028D01*
X90555Y178124D01*
X90535Y178147D01*
X90522Y178175D01*
X90452Y178250D01*
X90387Y178330D01*
X90361Y178347D01*
X90340Y178369D01*
X90251Y178420D01*
X90166Y178477D01*
X90142Y178483D01*
X90110Y178501D01*
X89850Y178559D01*
X89812Y178556D01*
X89789Y178561D01*
X89560Y178561D01*
X88518Y179603D01*
X88518Y193904D01*
X88503Y194006D01*
X88495Y194108D01*
X88483Y194136D01*
X88478Y194167D01*
X88434Y194259D01*
X88396Y194355D01*
X88376Y194378D01*
X88363Y194406D01*
X88293Y194481D01*
X88228Y194561D01*
X88202Y194578D01*
X88181Y194600D01*
X88092Y194651D01*
X88007Y194708D01*
X87983Y194714D01*
X87951Y194732D01*
X87691Y194790D01*
X87653Y194787D01*
X87630Y194792D01*
X28679Y194792D01*
X28577Y194777D01*
X28475Y194769D01*
X28447Y194757D01*
X28416Y194752D01*
X28324Y194708D01*
X28228Y194670D01*
X28205Y194650D01*
X28177Y194637D01*
X28102Y194567D01*
X28022Y194502D01*
X28005Y194476D01*
X27983Y194455D01*
X27932Y194366D01*
X27875Y194281D01*
X27869Y194257D01*
X27851Y194225D01*
X27793Y193965D01*
X27796Y193927D01*
X27791Y193904D01*
X27791Y189777D01*
X16139Y189777D01*
X16038Y189762D01*
X15935Y189753D01*
X15907Y189742D01*
X15876Y189737D01*
X15784Y189693D01*
X15689Y189654D01*
X15665Y189635D01*
X15637Y189622D01*
X15562Y189552D01*
X15482Y189487D01*
X15465Y189461D01*
X15443Y189440D01*
X15392Y189351D01*
X15335Y189266D01*
X15330Y189242D01*
X15311Y189209D01*
X15253Y188950D01*
X15256Y188912D01*
X15251Y188889D01*
X15251Y187999D01*
X14361Y187999D01*
X14260Y187984D01*
X14157Y187975D01*
X14129Y187964D01*
X14098Y187959D01*
X14006Y187915D01*
X13911Y187876D01*
X13887Y187857D01*
X13859Y187844D01*
X13784Y187774D01*
X13704Y187709D01*
X13687Y187683D01*
X13665Y187662D01*
X13614Y187573D01*
X13557Y187488D01*
X13551Y187464D01*
X13533Y187431D01*
X13475Y187172D01*
X13478Y187134D01*
X13473Y187111D01*
X13473Y179459D01*
X6096Y179459D01*
X5994Y179444D01*
X5892Y179436D01*
X5864Y179424D01*
X5833Y179419D01*
X5741Y179375D01*
X5645Y179337D01*
X5622Y179317D01*
X5594Y179304D01*
X5519Y179234D01*
X5439Y179169D01*
X5422Y179143D01*
X5400Y179122D01*
X5349Y179033D01*
X5292Y178948D01*
X5286Y178924D01*
X5268Y178892D01*
X5210Y178632D01*
X5213Y178594D01*
X5208Y178571D01*
X5208Y141429D01*
X5223Y141327D01*
X5231Y141225D01*
X5243Y141197D01*
X5248Y141166D01*
X5292Y141074D01*
X5330Y140978D01*
X5350Y140955D01*
X5363Y140927D01*
X5433Y140852D01*
X5498Y140772D01*
X5524Y140755D01*
X5545Y140733D01*
X5634Y140682D01*
X5719Y140625D01*
X5743Y140619D01*
X5775Y140601D01*
X6035Y140543D01*
X6073Y140546D01*
X6096Y140541D01*
X13473Y140541D01*
X13473Y132889D01*
X13488Y132788D01*
X13497Y132685D01*
X13508Y132657D01*
X13513Y132626D01*
X13557Y132534D01*
X13596Y132439D01*
X13615Y132415D01*
X13628Y132387D01*
X13698Y132312D01*
X13763Y132232D01*
X13789Y132215D01*
X13810Y132193D01*
X13899Y132142D01*
X13984Y132085D01*
X14008Y132080D01*
X14040Y132061D01*
X14300Y132003D01*
X14338Y132006D01*
X14361Y132001D01*
X15251Y132001D01*
X15251Y131999D01*
X14361Y131999D01*
X14260Y131984D01*
X14157Y131975D01*
X14129Y131964D01*
X14098Y131959D01*
X14006Y131915D01*
X13911Y131876D01*
X13887Y131857D01*
X13859Y131844D01*
X13784Y131774D01*
X13704Y131709D01*
X13687Y131683D01*
X13665Y131662D01*
X13614Y131573D01*
X13557Y131488D01*
X13551Y131464D01*
X13533Y131431D01*
X13475Y131172D01*
X13478Y131134D01*
X13473Y131111D01*
X13473Y123459D01*
X6096Y123459D01*
X5994Y123444D01*
X5892Y123436D01*
X5864Y123424D01*
X5833Y123419D01*
X5741Y123375D01*
X5645Y123337D01*
X5622Y123317D01*
X5594Y123304D01*
X5519Y123234D01*
X5439Y123169D01*
X5422Y123143D01*
X5400Y123122D01*
X5349Y123033D01*
X5292Y122948D01*
X5286Y122924D01*
X5268Y122892D01*
X5210Y122632D01*
X5213Y122594D01*
X5208Y122571D01*
X5208Y76156D01*
X5222Y76065D01*
X5227Y75973D01*
X5241Y75934D01*
X5248Y75893D01*
X5288Y75810D01*
X5320Y75724D01*
X5345Y75691D01*
X5363Y75654D01*
X5426Y75586D01*
X5483Y75514D01*
X5516Y75490D01*
X5545Y75460D01*
X5625Y75414D01*
X5700Y75361D01*
X5740Y75348D01*
X5775Y75328D01*
X5865Y75308D01*
X5953Y75279D01*
X5995Y75279D01*
X6035Y75270D01*
X6127Y75278D01*
X6219Y75277D01*
X6259Y75288D01*
X6300Y75292D01*
X6385Y75326D01*
X6474Y75352D01*
X6508Y75375D01*
X6547Y75391D01*
X6618Y75449D01*
X6695Y75500D01*
X6713Y75526D01*
X6753Y75558D01*
X6900Y75779D01*
X6905Y75799D01*
X6917Y75816D01*
X7976Y78375D01*
X13625Y84024D01*
X21006Y87081D01*
X28994Y87081D01*
X36375Y84024D01*
X42024Y78375D01*
X45081Y70994D01*
X45081Y63006D01*
X42024Y55625D01*
X36375Y49976D01*
X28994Y46919D01*
X21006Y46919D01*
X13625Y49976D01*
X7976Y55625D01*
X6917Y58184D01*
X6869Y58263D01*
X6829Y58346D01*
X6801Y58376D01*
X6779Y58411D01*
X6710Y58473D01*
X6647Y58540D01*
X6611Y58561D01*
X6581Y58588D01*
X6497Y58626D01*
X6417Y58672D01*
X6376Y58681D01*
X6339Y58698D01*
X6247Y58710D01*
X6157Y58730D01*
X6116Y58727D01*
X6075Y58732D01*
X5984Y58716D01*
X5892Y58708D01*
X5854Y58693D01*
X5813Y58686D01*
X5731Y58644D01*
X5645Y58609D01*
X5613Y58583D01*
X5577Y58565D01*
X5511Y58500D01*
X5439Y58442D01*
X5416Y58407D01*
X5387Y58379D01*
X5343Y58297D01*
X5292Y58221D01*
X5285Y58190D01*
X5260Y58145D01*
X5209Y57884D01*
X5212Y57864D01*
X5208Y57844D01*
X5208Y6096D01*
X5223Y5994D01*
X5231Y5892D01*
X5243Y5864D01*
X5248Y5833D01*
X5292Y5741D01*
X5330Y5645D01*
X5350Y5622D01*
X5363Y5594D01*
X5433Y5519D01*
X5498Y5439D01*
X5524Y5422D01*
X5545Y5400D01*
X5634Y5349D01*
X5719Y5292D01*
X5743Y5286D01*
X5775Y5268D01*
X6035Y5210D01*
X6073Y5213D01*
X6096Y5208D01*
X50978Y5208D01*
X51080Y5223D01*
G37*
G36*
X80809Y5215D02*
X80809Y5215D01*
X80861Y5214D01*
X80940Y5235D01*
X81021Y5248D01*
X81067Y5270D01*
X81117Y5284D01*
X81186Y5328D01*
X81260Y5363D01*
X81298Y5398D01*
X81341Y5426D01*
X81395Y5489D01*
X81454Y5545D01*
X81480Y5589D01*
X81513Y5629D01*
X81546Y5704D01*
X81586Y5775D01*
X81598Y5826D01*
X81618Y5873D01*
X81626Y5955D01*
X81644Y6035D01*
X81640Y6086D01*
X81645Y6138D01*
X81629Y6218D01*
X81623Y6300D01*
X81603Y6348D01*
X81593Y6398D01*
X81566Y6442D01*
X81524Y6547D01*
X81411Y6686D01*
X81386Y6724D01*
X78794Y9316D01*
X77266Y13004D01*
X77266Y16996D01*
X78794Y20684D01*
X81616Y23506D01*
X83957Y24476D01*
X84010Y24508D01*
X84068Y24531D01*
X84123Y24576D01*
X84185Y24613D01*
X84226Y24659D01*
X84274Y24698D01*
X84314Y24758D01*
X84361Y24812D01*
X84387Y24868D01*
X84421Y24920D01*
X84432Y24967D01*
X84471Y25053D01*
X84498Y25266D01*
X84505Y25296D01*
X84505Y56231D01*
X84498Y56282D01*
X84499Y56333D01*
X84478Y56413D01*
X84465Y56494D01*
X84443Y56540D01*
X84429Y56590D01*
X84385Y56659D01*
X84350Y56733D01*
X84315Y56771D01*
X84287Y56814D01*
X84224Y56867D01*
X84168Y56927D01*
X84124Y56953D01*
X84084Y56986D01*
X84009Y57019D01*
X83938Y57059D01*
X83887Y57070D01*
X83840Y57091D01*
X83758Y57099D01*
X83678Y57117D01*
X83627Y57113D01*
X83575Y57118D01*
X83495Y57102D01*
X83413Y57095D01*
X83365Y57076D01*
X83315Y57066D01*
X83271Y57038D01*
X83166Y56996D01*
X83027Y56883D01*
X82989Y56859D01*
X81501Y55371D01*
X77503Y55371D01*
X74675Y58199D01*
X74675Y62197D01*
X75350Y62872D01*
X75380Y62913D01*
X75418Y62949D01*
X75459Y63020D01*
X75508Y63086D01*
X75525Y63135D01*
X75550Y63179D01*
X75568Y63259D01*
X75595Y63337D01*
X75597Y63389D01*
X75608Y63439D01*
X75601Y63521D01*
X75604Y63603D01*
X75591Y63652D01*
X75586Y63704D01*
X75556Y63780D01*
X75534Y63859D01*
X75507Y63903D01*
X75487Y63951D01*
X75436Y64014D01*
X75392Y64083D01*
X75352Y64117D01*
X75320Y64157D01*
X75251Y64202D01*
X75189Y64255D01*
X75142Y64276D01*
X75099Y64304D01*
X75048Y64316D01*
X75041Y64319D01*
X73278Y66081D01*
X73278Y75143D01*
X74971Y76836D01*
X75311Y76836D01*
X75413Y76851D01*
X75515Y76859D01*
X75543Y76871D01*
X75574Y76876D01*
X75666Y76920D01*
X75762Y76958D01*
X75785Y76978D01*
X75813Y76991D01*
X75888Y77061D01*
X75968Y77126D01*
X75985Y77152D01*
X76007Y77173D01*
X76058Y77262D01*
X76115Y77347D01*
X76121Y77371D01*
X76139Y77403D01*
X76197Y77663D01*
X76194Y77701D01*
X76199Y77724D01*
X76199Y100936D01*
X78394Y103131D01*
X80382Y105119D01*
X80413Y105160D01*
X80451Y105196D01*
X80491Y105267D01*
X80540Y105333D01*
X80557Y105382D01*
X80582Y105426D01*
X80600Y105506D01*
X80627Y105584D01*
X80629Y105636D01*
X80640Y105686D01*
X80634Y105768D01*
X80636Y105850D01*
X80623Y105899D01*
X80619Y105951D01*
X80588Y106027D01*
X80567Y106106D01*
X80539Y106150D01*
X80520Y106198D01*
X80468Y106261D01*
X80424Y106330D01*
X80385Y106364D01*
X80352Y106404D01*
X80284Y106449D01*
X80221Y106502D01*
X80174Y106523D01*
X80131Y106551D01*
X80081Y106563D01*
X79977Y106607D01*
X79799Y106625D01*
X79754Y106635D01*
X76412Y106635D01*
X76391Y106632D01*
X76370Y106634D01*
X76260Y106612D01*
X76149Y106595D01*
X76130Y106586D01*
X76109Y106582D01*
X76071Y106558D01*
X75909Y106480D01*
X75827Y106403D01*
X75783Y106375D01*
X64955Y95547D01*
X64942Y95530D01*
X64926Y95516D01*
X64909Y95491D01*
X64889Y95472D01*
X64851Y95405D01*
X64797Y95333D01*
X64790Y95313D01*
X64779Y95295D01*
X64773Y95269D01*
X64757Y95242D01*
X64742Y95175D01*
X64710Y95082D01*
X64708Y95019D01*
X64699Y94982D01*
X64702Y94951D01*
X64695Y94918D01*
X64695Y25922D01*
X64710Y25820D01*
X64718Y25718D01*
X64730Y25690D01*
X64735Y25659D01*
X64779Y25567D01*
X64817Y25471D01*
X64837Y25448D01*
X64850Y25420D01*
X64920Y25345D01*
X64985Y25265D01*
X65011Y25248D01*
X65032Y25226D01*
X65121Y25175D01*
X65206Y25118D01*
X65230Y25112D01*
X65262Y25094D01*
X65522Y25036D01*
X65560Y25039D01*
X65583Y25034D01*
X70892Y25034D01*
X71934Y23992D01*
X71934Y6096D01*
X71949Y5994D01*
X71957Y5892D01*
X71969Y5864D01*
X71974Y5833D01*
X72018Y5741D01*
X72056Y5645D01*
X72076Y5622D01*
X72089Y5594D01*
X72159Y5519D01*
X72224Y5439D01*
X72250Y5422D01*
X72271Y5400D01*
X72360Y5349D01*
X72445Y5292D01*
X72469Y5286D01*
X72501Y5268D01*
X72761Y5210D01*
X72799Y5213D01*
X72822Y5208D01*
X80758Y5208D01*
X80809Y5215D01*
G37*
G36*
X83815Y87014D02*
X83815Y87014D01*
X83897Y87021D01*
X83945Y87040D01*
X83995Y87050D01*
X84039Y87078D01*
X84144Y87120D01*
X84283Y87233D01*
X84321Y87257D01*
X86402Y89339D01*
X86403Y89339D01*
X94449Y97385D01*
X94479Y97426D01*
X94517Y97462D01*
X94558Y97533D01*
X94606Y97599D01*
X94623Y97648D01*
X94649Y97692D01*
X94667Y97772D01*
X94694Y97850D01*
X94695Y97902D01*
X94707Y97952D01*
X94700Y98034D01*
X94703Y98116D01*
X94689Y98165D01*
X94685Y98217D01*
X94655Y98293D01*
X94633Y98372D01*
X94605Y98416D01*
X94586Y98464D01*
X94534Y98527D01*
X94490Y98596D01*
X94451Y98630D01*
X94418Y98670D01*
X94350Y98715D01*
X94288Y98768D01*
X94240Y98789D01*
X94197Y98817D01*
X94147Y98829D01*
X94043Y98873D01*
X93865Y98891D01*
X93821Y98901D01*
X85259Y98901D01*
X85174Y98958D01*
X85083Y99025D01*
X85064Y99032D01*
X85046Y99043D01*
X85002Y99053D01*
X84832Y99112D01*
X84720Y99116D01*
X84669Y99127D01*
X84100Y99127D01*
X84079Y99124D01*
X84058Y99126D01*
X83948Y99104D01*
X83837Y99087D01*
X83818Y99078D01*
X83798Y99074D01*
X83759Y99050D01*
X83598Y98972D01*
X83515Y98895D01*
X83472Y98867D01*
X83065Y98460D01*
X83052Y98443D01*
X83036Y98430D01*
X82974Y98336D01*
X82907Y98246D01*
X82900Y98226D01*
X82889Y98209D01*
X82879Y98164D01*
X82820Y97995D01*
X82816Y97882D01*
X82805Y97832D01*
X82805Y87885D01*
X82812Y87835D01*
X82811Y87783D01*
X82832Y87704D01*
X82845Y87623D01*
X82867Y87576D01*
X82881Y87526D01*
X82925Y87457D01*
X82960Y87383D01*
X82995Y87346D01*
X83023Y87302D01*
X83086Y87249D01*
X83142Y87189D01*
X83186Y87163D01*
X83226Y87130D01*
X83301Y87098D01*
X83372Y87057D01*
X83423Y87046D01*
X83470Y87026D01*
X83552Y87017D01*
X83632Y86999D01*
X83683Y87004D01*
X83735Y86998D01*
X83815Y87014D01*
G37*
%LPC*%
G36*
X154973Y9651D02*
X154973Y9651D01*
X152145Y12479D01*
X152145Y16477D01*
X154973Y19305D01*
X158971Y19305D01*
X161799Y16477D01*
X161799Y12479D01*
X158971Y9651D01*
X154973Y9651D01*
G37*
%LPD*%
%LPC*%
G36*
X41181Y9651D02*
X41181Y9651D01*
X38353Y12479D01*
X38353Y16477D01*
X41181Y19305D01*
X45179Y19305D01*
X48007Y16477D01*
X48007Y12479D01*
X45179Y9651D01*
X41181Y9651D01*
G37*
%LPD*%
%LPC*%
G36*
X17027Y133777D02*
X17027Y133777D01*
X17027Y140541D01*
X25585Y140541D01*
X26231Y140368D01*
X26810Y140033D01*
X27283Y139560D01*
X27618Y138981D01*
X27791Y138335D01*
X27791Y133777D01*
X17027Y133777D01*
G37*
%LPD*%
%LPC*%
G36*
X17027Y179459D02*
X17027Y179459D01*
X17027Y186223D01*
X27791Y186223D01*
X27791Y181665D01*
X27618Y181019D01*
X27283Y180440D01*
X26810Y179967D01*
X26231Y179632D01*
X25585Y179459D01*
X17027Y179459D01*
G37*
%LPD*%
%LPC*%
G36*
X17027Y123459D02*
X17027Y123459D01*
X17027Y130223D01*
X27791Y130223D01*
X27791Y125665D01*
X27618Y125019D01*
X27283Y124440D01*
X26810Y123967D01*
X26231Y123632D01*
X25585Y123459D01*
X17027Y123459D01*
G37*
%LPD*%
%LPC*%
G36*
X174415Y123459D02*
X174415Y123459D01*
X173769Y123632D01*
X173190Y123967D01*
X172717Y124440D01*
X172382Y125019D01*
X172209Y125665D01*
X172209Y130223D01*
X182973Y130223D01*
X182973Y123459D01*
X174415Y123459D01*
G37*
%LPD*%
%LPC*%
G36*
X139877Y16777D02*
X139877Y16777D01*
X139877Y25649D01*
X140628Y25530D01*
X142244Y25005D01*
X143758Y24233D01*
X145133Y23235D01*
X146335Y22033D01*
X147333Y20658D01*
X148105Y19144D01*
X148630Y17528D01*
X148749Y16777D01*
X139877Y16777D01*
G37*
%LPD*%
%LPC*%
G36*
X127451Y16777D02*
X127451Y16777D01*
X127570Y17528D01*
X128095Y19144D01*
X128867Y20658D01*
X129865Y22033D01*
X131067Y23235D01*
X132442Y24233D01*
X133956Y25005D01*
X135572Y25530D01*
X136323Y25649D01*
X136323Y16777D01*
X127451Y16777D01*
G37*
%LPD*%
%LPC*%
G36*
X53499Y176499D02*
X53499Y176499D01*
X53499Y180541D01*
X59085Y180541D01*
X59731Y180368D01*
X60310Y180033D01*
X60783Y179560D01*
X61118Y178981D01*
X61291Y178335D01*
X61291Y176499D01*
X53499Y176499D01*
G37*
%LPD*%
%LPC*%
G36*
X42709Y176499D02*
X42709Y176499D01*
X42709Y178335D01*
X42882Y178981D01*
X43217Y179560D01*
X43690Y180033D01*
X44269Y180368D01*
X44915Y180541D01*
X50501Y180541D01*
X50501Y176499D01*
X42709Y176499D01*
G37*
%LPD*%
%LPC*%
G36*
X149499Y139459D02*
X149499Y139459D01*
X149499Y143501D01*
X157291Y143501D01*
X157291Y141665D01*
X157118Y141019D01*
X156783Y140440D01*
X156310Y139967D01*
X155731Y139632D01*
X155085Y139459D01*
X149499Y139459D01*
G37*
%LPD*%
%LPC*%
G36*
X96519Y72389D02*
X96519Y72389D01*
X96519Y77598D01*
X98557Y77598D01*
X99485Y77349D01*
X100318Y76868D01*
X100998Y76188D01*
X101479Y75355D01*
X101728Y74427D01*
X101728Y72389D01*
X96519Y72389D01*
G37*
%LPD*%
%LPC*%
G36*
X96519Y63626D02*
X96519Y63626D01*
X96519Y68835D01*
X101728Y68835D01*
X101728Y66797D01*
X101479Y65869D01*
X100998Y65036D01*
X100318Y64356D01*
X99485Y63875D01*
X98557Y63626D01*
X96519Y63626D01*
G37*
%LPD*%
D10*
X91408Y73946D02*
X98076Y73946D01*
X98076Y67278D01*
X91408Y67278D01*
X91408Y73946D01*
X91408Y69390D02*
X98076Y69390D01*
X98076Y71502D02*
X91408Y71502D01*
X91408Y73614D02*
X98076Y73614D01*
X82836Y73946D02*
X76168Y73946D01*
X82836Y73946D02*
X82836Y67278D01*
X76168Y67278D01*
X76168Y73946D01*
X76168Y69390D02*
X82836Y69390D01*
X82836Y71502D02*
X76168Y71502D01*
X76168Y73614D02*
X82836Y73614D01*
D11*
X61900Y15000D03*
D12*
X87300Y15000D03*
X112700Y15000D03*
X138100Y15000D03*
D13*
X52000Y175000D03*
X52000Y165000D03*
X52000Y155000D03*
X52000Y145000D03*
D14*
X15250Y132000D03*
X15250Y188000D03*
D13*
X148000Y145000D03*
X148000Y155000D03*
X148000Y165000D03*
X148000Y175000D03*
D14*
X184750Y188000D03*
X184750Y132000D03*
D15*
X109728Y186690D03*
X101600Y186690D03*
X93472Y186690D03*
D16*
X101600Y186690D02*
X109982Y186690D01*
X101600Y186690D02*
X92964Y186690D01*
D10*
X97314Y146844D02*
X97314Y140176D01*
X90646Y140176D01*
X90646Y146844D01*
X97314Y146844D01*
X97314Y142288D02*
X90646Y142288D01*
X90646Y144400D02*
X97314Y144400D01*
X97314Y146512D02*
X90646Y146512D01*
X97314Y155416D02*
X97314Y162084D01*
X97314Y155416D02*
X90646Y155416D01*
X90646Y162084D01*
X97314Y162084D01*
X97314Y157528D02*
X90646Y157528D01*
X90646Y159640D02*
X97314Y159640D01*
X97314Y161752D02*
X90646Y161752D01*
X112554Y146844D02*
X112554Y140176D01*
X105886Y140176D01*
X105886Y146844D01*
X112554Y146844D01*
X112554Y142288D02*
X105886Y142288D01*
X105886Y144400D02*
X112554Y144400D01*
X112554Y146512D02*
X105886Y146512D01*
X112554Y155416D02*
X112554Y162084D01*
X112554Y155416D02*
X105886Y155416D01*
X105886Y162084D01*
X112554Y162084D01*
X112554Y157528D02*
X105886Y157528D01*
X105886Y159640D02*
X112554Y159640D01*
X112554Y161752D02*
X105886Y161752D01*
D17*
X109500Y102430D03*
X90500Y102430D03*
X109500Y109430D03*
D18*
X91000Y109430D03*
D19*
X75692Y23368D03*
X99822Y9144D03*
X124968Y8636D03*
X86614Y94742D03*
X14478Y146050D03*
X14224Y173482D03*
D16*
X52000Y145000D02*
X92490Y145000D01*
X93980Y143510D01*
X95206Y109430D02*
X91000Y109430D01*
X95206Y109430D02*
X97790Y112014D01*
X97790Y139700D01*
X93980Y143510D01*
X144012Y175000D02*
X148000Y175000D01*
D19*
X119888Y150876D03*
X84074Y144907D03*
D16*
X119888Y150876D02*
X144012Y175000D01*
X61900Y96444D02*
X61900Y15000D01*
X74886Y109430D02*
X91000Y109430D01*
X74886Y109430D02*
X61900Y96444D01*
X84074Y144907D02*
X92583Y144907D01*
X93980Y143510D01*
X108458Y109430D02*
X109500Y109430D01*
X108458Y109430D02*
X105962Y109430D01*
X104521Y110871D01*
X102616Y112776D01*
X102616Y136906D01*
X109220Y143510D01*
X56328Y155000D02*
X52000Y155000D01*
X101981Y150749D02*
X109220Y143510D01*
X101981Y150749D02*
X60579Y150749D01*
X56328Y155000D01*
X144172Y165000D02*
X148000Y165000D01*
X122682Y143510D02*
X109220Y143510D01*
X122682Y143510D02*
X144172Y165000D01*
X87300Y86284D02*
X87300Y15000D01*
X100584Y99568D02*
X100584Y104394D01*
X104521Y108331D01*
X105620Y109430D01*
X108458Y109430D01*
X100584Y99568D02*
X87300Y86284D01*
X104521Y108331D02*
X104521Y110871D01*
X93472Y159258D02*
X93472Y186690D01*
X93472Y159258D02*
X93980Y158750D01*
X109728Y159258D02*
X109728Y186690D01*
X109728Y159258D02*
X109220Y158750D01*
D20*
X90500Y102430D02*
X82364Y102430D01*
X79502Y99568D01*
X79502Y70612D01*
X52000Y165000D02*
X40486Y165000D01*
X40386Y165100D01*
D19*
X40386Y165100D03*
D20*
X142554Y155000D02*
X148000Y155000D01*
X142554Y155000D02*
X113538Y125984D01*
D19*
X113538Y125984D03*
X79502Y60198D03*
D20*
X79502Y70612D01*
X101600Y176276D02*
X101600Y186690D01*
D19*
X101600Y176276D03*
D20*
X74068Y165000D02*
X52000Y165000D01*
X74068Y165000D02*
X74168Y165100D01*
D19*
X74168Y165100D03*
X43180Y14478D03*
X156972Y14478D03*
X184658Y173228D03*
X184404Y146050D03*
M02*
